<svg width="64" height="64" viewBox="0 0 64 64" fill="none" xmlns="http://www.w3.org/2000/svg">
<g clip-path="url(#clip0_2_32)">
<path fill-rule="evenodd" clip-rule="evenodd" d="M31.9988 0.79205C14.3293 0.79205 0 15.119 0 32.7908C0 46.93 9.1678 58.9206 21.8826 63.1538C23.483 63.4502 24.0712 62.4581 24.0712 61.6124C24.0712 60.8494 24.0393 58.3289 24.0263 55.6572C15.1231 57.5931 13.2463 51.88 13.2463 51.88C11.7911 48.1807 9.6934 47.1969 9.6934 47.1969C6.7902 45.209 9.9143 45.2527 9.9143 45.2527C13.1269 45.4772 14.8183 48.5481 14.8183 48.5481C17.6743 53.4403 22.3066 52.024 24.1314 51.2078C24.4196 49.1397 25.2464 47.7272 26.1629 46.9276C19.0549 46.1209 11.5832 43.376 11.5832 31.1136C11.5832 27.621 12.8352 24.765 14.8797 22.5255C14.5467 21.7177 13.4506 18.465 15.188 14.0581C15.188 14.0581 17.875 13.1972 23.9909 17.3382C26.5421 16.6307 29.2787 16.2739 31.9965 16.2621C34.7165 16.2739 37.4579 16.6295 40.0127 17.3382C46.1203 13.1996 48.8049 14.0581 48.8049 14.0581C50.5447 18.4662 49.4534 21.7213 49.1203 22.5257C51.1719 24.7651 52.4133 27.621 52.4133 31.1136C52.4133 43.4043 44.925 46.1066 37.8016 46.8992C38.9497 47.8913 39.9749 49.8389 39.9749 52.8224C39.9749 57.1016 39.9383 60.5505 39.9383 61.6029C39.9383 62.4545 40.5147 63.4502 42.1375 63.1383C54.8451 58.9029 64.0012 46.9109 64.0012 32.7801C64.0012 15.1106 49.6743 0.78125 32.0012 0.78125L31.9989 0.79195L31.9988 0.79205Z" fill="white"/>
</g>
<defs>
<clipPath id="clip0_2_32">
<rect width="64" height="64" fill="white"/>
</clipPath>
</defs>
</svg>
