<svg width="32768" height="32768" viewBox="0 0 32768 32768" fill="none" xmlns="http://www.w3.org/2000/svg">
<g clip-path="url(#clip0_1230_2)">
<mask id="mask0_1230_2" style="mask-type:alpha" maskUnits="userSpaceOnUse" x="0" y="0" width="32768" height="32768">
<path d="M32768 0H0V32768H32768V0Z" fill="white"/>
</mask>
<g mask="url(#mask0_1230_2)">
<path fill-rule="evenodd" clip-rule="evenodd" d="M11704.7 10531.8H18179.5V13851L18273.1 13851.2C19174.8 12233.6 21379.7 10532 24667.3 10532C31504.4 10531.8 32768.9 14786.6 32768.9 20321.5V31596.4L26016.5 31596.6V21601.8C26016.5 19219.2 25966.9 16152.1 22505.4 16152.1C18989.6 16152.1 18450.9 18745.7 18450.9 21428.3V31596.7H11704.7V10532V10531.8ZM7023.53 4680.55C7023.53 6618.72 5450.67 8191.48 3512.5 8191.48C1574.34 8191.48 0.884766 6618.62 0.884766 4680.55C0.884766 2742.39 1574.34 1169.52 3512.5 1169.52C5450.67 1169.52 7023.53 2742.39 7023.53 4680.55ZM0.884766 10531.8H7023.53V31596.5H0.884766V10531.8Z" fill="black"/>
</g>
</g>
<defs>
<clipPath id="clip0_1230_2">
<rect width="32768" height="32768" fill="white"/>
</clipPath>
</defs>
</svg>
