<svg width="93" height="123" viewBox="0 0 93 123" fill="none" xmlns="http://www.w3.org/2000/svg">
<g clip-path="url(#clip0_1230_8)">
<mask id="mask0_1230_8" style="mask-type:alpha" maskUnits="userSpaceOnUse" x="0" y="0" width="93" height="123">
<path d="M92.25 0H0V122.88H92.25V0Z" fill="white"/>
</mask>
<g mask="url(#mask0_1230_8)">
<path fill-rule="evenodd" clip-rule="evenodd" d="M49.0995 122.341C48.6509 122.672 48.1123 122.859 47.5551 122.877C46.9979 122.895 46.4484 122.743 45.9795 122.441C35.7152 115.959 26.598 107.819 18.9995 98.3512C9.14952 86.0012 2.99953 72.3312 0.829523 59.1612C-1.33047 45.7912 0.689523 32.9412 7.33953 22.4912C10.0446 18.2432 13.4415 14.4779 17.3895 11.3512C26.7695 3.87119 37.4895 -0.0788084 48.1595 0.00119156C58.4495 0.0811916 68.5895 3.92119 77.3595 11.9112C80.3968 14.6856 83.0202 17.8815 85.1495 21.4012C92.2995 33.1712 93.8395 48.2012 90.6995 63.4012C88.0638 75.5073 83.0235 86.9607 75.8775 97.0819C68.7315 107.203 59.6254 115.786 49.0995 122.321V122.341ZM46.0995 23.7612C50.651 23.7493 55.1037 25.0881 58.8939 27.6082C62.6842 30.1282 65.6415 33.7162 67.3915 37.9178C69.1415 42.1195 69.6055 46.7459 68.7249 51.2114C67.8442 55.6769 65.6584 59.7807 62.4442 63.0033C59.23 66.2259 55.1319 68.4224 50.6687 69.3148C46.2055 70.2071 41.5779 69.7551 37.3717 68.0161C33.1655 66.2771 29.5699 63.3291 27.0399 59.5455C24.51 55.7619 23.1595 51.3127 23.1595 46.7612C23.1595 40.6664 25.5786 34.8208 29.8855 30.5083C34.1923 26.1959 40.0347 23.7691 46.1295 23.7612H46.0995Z" fill="black"/>
</g>
</g>
<defs>
<clipPath id="clip0_1230_8">
<rect width="93" height="123" fill="white"/>
</clipPath>
</defs>
</svg>
