<svg width="96" height="123" viewBox="0 0 96 123" fill="none" xmlns="http://www.w3.org/2000/svg">
<g clip-path="url(#clip0_195_115)">
<path d="M43.044 0H63.0232V91.5716C52.7895 93.5074 45.2557 94.269 37.1044 94.269C12.7024 94.2435 0 83.3419 0 62.4045C0 42.2314 13.4738 29.139 34.353 29.139C37.593 29.139 40.0612 29.394 43.044 30.1579V0ZM43.7441 46.6601C41.4041 45.8959 39.4759 45.6413 37.0072 45.6413C26.9021 45.6413 21.0652 51.8051 21.0652 62.6074C21.0652 73.1246 26.6453 78.9319 36.879 78.9319C39.09 78.9319 40.89 78.8074 43.7441 78.4253V46.6601V46.6601Z" fill="#2BA977"/>
<path d="M95.6951 31.5975V77.4461C95.6951 93.2355 94.5123 100.828 91.041 107.375C87.801 113.668 83.5327 117.637 74.7131 122.02L56.1738 113.284C64.9935 109.185 69.2617 105.564 71.9876 100.036C74.8413 94.3845 75.7413 87.8381 75.7413 70.6196V31.5979H95.6951V31.5975ZM73.728 0H93.7072V20.3006H73.728V0Z" fill="#2BA977"/>
</g>
<defs>
<clipPath id="clip0_195_115">
<rect width="96" height="122.262" fill="white"/>
</clipPath>
</defs>
</svg>
