<svg width="96" height="133" viewBox="0 0 96 133" fill="none" xmlns="http://www.w3.org/2000/svg">
<g clip-path="url(#clip0_195_110)">
<path d="M63.0329 48.027L49.7352 60.4084L37.3916 35.5001L43.7682 21.1783C45.3799 18.3215 48.0157 18.2837 49.6274 21.1783L63.0329 48.027Z" fill="#FFA000"/>
<path d="M49.741 60.4029L0 106.667L37.3974 35.5L49.741 60.4029Z" fill="#F57F17"/>
<path d="M77.6139 29.0911C79.9964 26.8218 82.449 27.5872 83.0688 30.8106L96 106.042L53.1099 131.791C51.6061 132.632 47.6173 132.961 47.6173 132.961C47.6173 132.961 43.9897 132.519 42.599 131.753L0 106.667L77.6139 29.0911Z" fill="#FFCA28"/>
<path d="M37.3974 35.5L0 106.667L16.6666 2.64657C17.2919 -0.576784 19.1191 -0.905588 20.7686 1.95123L37.3974 35.5Z" fill="#FFA000"/>
</g>
<defs>
<clipPath id="clip0_195_110">
<rect width="96" height="132.966" fill="white"/>
</clipPath>
</defs>
</svg>
