<svg width="96" height="96" viewBox="0 0 96 96" fill="none" xmlns="http://www.w3.org/2000/svg">
<path fill-rule="evenodd" clip-rule="evenodd" d="M0 0H96V96H0V0Z" fill="white"/>
<path fill-rule="evenodd" clip-rule="evenodd" d="M40.0281 50.665C40.0281 50.665 37.7351 51.9993 41.6617 52.45C46.4199 52.9934 48.8504 52.9152 54.0922 51.9236C54.0922 51.9236 55.4723 52.7877 57.3987 53.5352C45.6445 58.5719 30.797 53.2439 40.0281 50.665ZM38.5913 44.0924C38.5913 44.0924 36.0189 45.9964 39.9489 46.4028C45.0319 46.9277 49.0441 46.9706 55.9913 45.6338C55.9913 45.6338 56.9505 46.6075 58.46 47.1394C44.2505 51.2955 28.4248 47.4666 38.5913 44.0924Z" fill="#3174B9"/>
<path fill-rule="evenodd" clip-rule="evenodd" d="M50.6987 32.9418C53.5963 36.2771 49.9392 39.2768 49.9392 39.2768C49.9392 39.2768 57.2933 35.4813 53.9156 30.7265C50.762 26.2944 48.343 24.0926 61.437 16.4995C61.4365 16.499 40.8829 21.6308 50.6987 32.9418Z" fill="#CA3132"/>
<path fill-rule="evenodd" clip-rule="evenodd" d="M66.2438 55.5268C66.2438 55.5268 67.9411 56.9263 64.3742 58.0086C57.5914 60.063 36.1383 60.6825 30.1793 58.0902C28.0387 57.1579 32.0549 55.8655 33.3185 55.5926C34.6363 55.3077 35.3883 55.3595 35.3883 55.3595C33.0062 53.6821 19.9909 58.654 28.7783 60.0804C52.74 63.9656 72.4583 58.3313 66.2438 55.5268ZM41.1312 37.2817C41.1312 37.2817 30.2201 39.874 37.2679 40.8162C40.2447 41.2142 46.1743 41.1225 51.7021 40.6589C56.2183 40.2799 60.7514 39.4691 60.7514 39.4691C60.7514 39.4691 59.1602 40.1519 58.0072 40.9378C46.9254 43.8528 25.5207 42.4951 31.6834 39.5154C36.8939 36.9948 41.1312 37.2817 41.1312 37.2817V37.2817ZM60.7061 48.2221C71.9703 42.3701 66.7623 36.7453 63.1261 37.5033C62.2371 37.6891 61.8382 37.8494 61.8382 37.8494C61.8382 37.8494 62.1698 37.3305 62.8004 37.1074C69.9925 34.5798 75.5228 44.564 60.4815 48.5179C60.481 48.5179 60.6543 48.3615 60.7061 48.2221V48.2221Z" fill="#3174B9"/>
<path fill-rule="evenodd" clip-rule="evenodd" d="M53.9154 4.23535C53.9154 4.23535 60.1524 10.4763 47.9982 20.07C38.2511 27.7687 45.776 32.1569 47.9953 37.1727C42.3047 32.0394 38.1306 27.5197 40.9306 23.3142C45.0414 17.141 56.432 14.1473 53.9154 4.23535V4.23535Z" fill="#CA3132"/>
<path fill-rule="evenodd" clip-rule="evenodd" d="M42.24 64.0847C53.0505 64.776 69.6546 63.7007 70.0485 58.5844C70.0485 58.5844 69.2925 60.5237 61.1132 62.0622C51.8851 63.7993 40.5014 63.5971 33.752 62.483C33.752 62.483 35.135 63.6275 42.24 64.0847V64.0847Z" fill="#3174B9"/>
<path fill-rule="evenodd" clip-rule="evenodd" d="M69.5487 73.2595H69.22V73.0752H70.107V73.2595H69.7783V74.1799H69.5487V73.2595ZM71.3188 73.3053H71.3148L70.9881 74.1794H70.8381L70.5134 73.3053H70.5094V74.1794H70.2913V73.0747H70.6115L70.9124 73.8562L71.2132 73.0747H71.5304V74.1794H71.3193V73.3053H71.3188V73.3053ZM40.4682 83.6312C39.4487 84.5147 38.371 85.0117 37.4033 85.0117C36.0247 85.0117 35.2767 84.1835 35.2767 82.8582C35.2767 81.4234 36.0775 80.3735 39.2829 80.3735H40.4677V83.6312H40.4682V83.6312ZM43.2822 86.8057V76.9784C43.2822 74.4668 41.8498 72.8093 38.3969 72.8093C36.3823 72.8093 34.6163 73.3068 33.1804 73.9408L33.5938 75.6815C34.7248 75.2661 36.1871 74.8811 37.6224 74.8811C39.6116 74.8811 40.4677 75.6815 40.4677 77.3384V78.5811H39.4736C34.6417 78.5811 32.4613 80.4557 32.4613 83.2741C32.4613 85.7025 33.8981 87.0831 36.603 87.0831C38.3416 87.0831 39.6405 86.3654 40.8532 85.315L41.0738 86.8057H43.2822V86.8057ZM52.6737 86.8057H49.165L44.9401 73.0593H48.0051L50.6272 81.5065L51.2109 84.0445C52.5337 80.3735 53.4725 76.6467 53.9422 73.0593H56.9224C56.1246 77.5855 54.6872 82.5549 52.6737 86.8057V86.8057ZM66.1391 83.6312C65.1167 84.5147 64.0389 85.0117 63.0732 85.0117C61.6947 85.0117 60.9476 84.1835 60.9476 82.8582C60.9476 81.4234 61.7489 80.3735 64.9523 80.3735H66.1391V83.6312V83.6312ZM68.9541 86.8057V76.9784C68.9541 74.4668 67.5172 72.8093 64.0678 72.8093C62.0512 72.8093 60.2857 73.3068 58.8499 73.9408L59.2632 75.6815C60.3943 75.2661 61.8595 74.8811 63.2953 74.8811C65.2815 74.8811 66.1387 75.6815 66.1387 77.3384V78.5811H65.1446C60.3121 78.5811 58.1332 80.4557 58.1332 83.2741C58.1332 85.7025 59.567 87.0831 62.2724 87.0831C64.0125 87.0831 65.3094 86.3654 66.5251 85.315L66.7468 86.8057H68.9541V86.8057ZM29.3759 89.1415C28.5741 90.3134 27.2772 91.2412 25.8593 91.7646L24.4697 90.1281C25.55 89.5738 26.4753 88.6788 26.9061 87.8461C27.2772 87.104 27.4321 86.1497 27.4321 83.8657V68.17H30.4228V83.6491C30.4228 86.7041 30.1787 87.9387 29.3759 89.1415V89.1415Z" fill="#CA3132"/>
</svg>
