<svg width="55" height="121" viewBox="0 0 55 121" fill="none" xmlns="http://www.w3.org/2000/svg">
<path d="M27.4898 0.595825L30.6921 6.61037C31.412 7.72029 32.192 8.70271 33.1107 9.61765C35.804 12.2774 38.3146 15.1162 40.6251 18.1145C46.0509 25.239 49.7107 33.1509 52.3242 41.7077C53.8916 46.9348 54.7428 52.2969 54.8065 57.719C55.069 73.929 49.5119 87.848 38.3078 99.4159C36.4853 101.25 34.5164 102.933 32.4207 104.448C31.3108 104.448 30.7858 103.597 30.3284 102.813C29.4953 101.36 28.9408 99.7639 28.6935 98.1072C28.2998 96.1461 28.041 94.185 28.1685 92.1602V91.2452C28.0785 91.0503 27.0999 1.05704 27.4898 0.595825V0.595825Z" fill="#599636"/>
<path d="M27.4896 0.397129C27.3583 0.134649 27.2271 0.333384 27.0959 0.460874C27.1596 1.77328 26.7021 2.94319 25.9859 4.0606C25.1985 5.17052 24.1561 6.02171 23.1099 6.93664C17.2978 11.9688 12.7232 18.0471 9.05971 24.8453C4.18508 33.9946 1.67277 43.8001 0.960323 54.1231C0.634098 57.8466 2.13773 70.9856 3.3114 74.7765C6.51365 84.8408 12.2657 93.2739 19.7164 100.593C21.5463 102.356 23.5036 103.991 25.5285 105.562C26.1172 105.562 26.1809 105.037 26.3159 104.647C26.574 103.812 26.7708 102.96 26.9046 102.097L28.217 92.2952L27.4896 0.397129Z" fill="#6CAC48"/>
<path d="M30.6917 108.43C30.8229 106.93 31.5429 105.686 32.3266 104.444C31.5391 104.118 30.9542 103.469 30.4967 102.746C30.1022 102.061 29.7757 101.338 29.5218 100.59C28.6068 97.8449 28.4119 94.9651 28.1494 92.1603V90.4617C27.8231 90.7242 27.7557 92.944 27.7557 93.274C27.5648 96.2384 27.1715 99.1863 26.5782 102.097C26.3833 103.274 26.252 104.448 25.5283 105.494C25.5283 105.626 25.5283 105.757 25.5921 105.952C26.7695 109.416 27.092 112.945 27.2907 116.541V117.853C27.2907 119.421 27.2269 119.091 28.5281 119.616C29.0531 119.811 29.638 119.878 30.163 120.268C30.5567 120.268 30.6204 119.942 30.6204 119.679L30.4255 117.523V111.509C30.3617 110.459 30.5567 109.416 30.6879 108.434L30.6917 108.43Z" fill="#C2BFBF"/>
</svg>
