<svg width="96" height="95" viewBox="0 0 96 95" fill="none" xmlns="http://www.w3.org/2000/svg">
<g clip-path="url(#clip0_195_81)">
<path d="M88.3676 72.8295C83.1484 72.6994 79.1033 73.2214 75.7106 74.6565C74.7319 75.0476 73.1659 75.048 73.0354 76.2877C73.5574 76.8097 73.6226 77.658 74.0794 78.3754C74.8631 79.68 76.2323 81.4417 77.472 82.3556C78.8419 83.3992 80.2125 84.4429 81.6473 85.3564C84.192 86.9224 87.063 87.8355 89.5421 89.4015C90.978 90.3142 92.4124 91.4895 93.8479 92.4679C94.5656 92.9891 95.022 93.8381 95.9359 94.164V93.9686C95.4788 93.381 95.3483 92.5331 94.8919 91.8806C94.2401 91.2281 93.5869 90.6409 92.9344 89.9884C91.0425 87.4444 88.6939 85.2259 86.1495 83.3992C84.0619 81.9637 79.4944 80.0066 78.6465 77.5924C78.6465 77.5924 78.5809 77.5275 78.516 77.4622C79.9511 77.3317 81.6473 76.8097 83.0179 76.4182C85.236 75.8306 87.2584 75.9615 89.5421 75.3742C90.5858 75.1132 91.6298 74.787 92.6734 74.4607V73.8739C91.4996 72.6993 90.6514 71.1337 89.4116 70.0245C86.0843 67.1531 82.4303 64.3481 78.6465 61.9995C76.6238 60.6945 74.0138 59.8462 71.8609 58.7373C71.0786 58.3455 69.7733 58.1501 69.3169 57.4976C68.142 56.0625 67.4895 54.1706 66.6416 52.4741C64.7501 48.8854 62.9228 44.9058 61.2915 41.1221C60.1178 38.5773 59.4 36.0326 57.9645 33.6843C51.2445 22.593 43.9373 15.873 32.7158 9.2831C30.3015 7.91322 27.4309 7.32597 24.3645 6.6086C22.734 6.54297 21.1024 6.41285 19.4715 6.34722C18.4275 5.89047 17.3835 4.6511 16.47 4.06385C12.7519 1.71485 3.16053 -3.37353 0.420402 3.34647C-1.34135 7.58697 3.0304 11.7622 4.5304 13.9158C5.6404 15.4162 7.07515 17.1123 7.85815 18.8088C8.3149 19.9173 8.44503 21.0926 8.90178 22.2667C9.94615 25.1366 10.9242 28.3342 12.2948 31.0095C13.0125 32.3793 13.7952 33.8145 14.7087 35.0542C15.2307 35.7716 16.1438 36.0982 16.3399 37.2723C15.4268 38.5773 15.3612 40.5349 14.8388 42.1657C12.4902 49.5382 13.404 58.6721 16.731 64.0871C17.7747 65.7176 20.2542 69.3071 23.5815 67.9365C26.5178 66.7624 25.8653 63.0435 26.7128 59.7814C26.9093 58.9976 26.7788 58.4764 27.1699 57.9544V58.0852C28.0834 59.9115 28.9965 61.6736 29.8448 63.5002C31.8675 66.6967 35.3903 70.0245 38.3261 72.243C39.8925 73.4167 41.1319 75.4395 43.0894 76.1572V75.9611H42.9585C42.567 75.3739 41.9798 75.1132 41.4581 74.6561C40.284 73.4823 38.9786 72.0469 38.0655 70.7419C35.3258 67.0879 32.9111 63.0431 30.7583 58.8675C29.7146 56.8455 28.8008 54.627 27.9529 52.6046C27.561 51.8209 27.561 50.6471 26.9089 50.256C25.9302 51.6911 24.495 52.9308 23.7773 54.6922C22.5383 57.4976 22.4074 60.9555 21.9507 64.5435C21.6897 64.6095 21.8198 64.5435 21.6893 64.6747C19.602 64.152 18.8843 61.9995 18.1009 60.1725C16.1434 55.5405 15.8172 48.1027 17.514 42.753C17.9708 41.3827 19.9283 37.077 19.1453 35.772C18.7538 34.5322 17.4484 33.8145 16.731 32.8361C15.8832 31.5964 14.9693 30.0311 14.3824 28.6605C12.8164 25.0068 12.0334 20.9617 10.3373 17.3081C9.55428 15.6116 8.18478 13.8506 7.07515 12.2846C5.83578 10.5232 4.46553 9.2831 3.48678 7.19547C3.1609 6.4781 2.70378 5.3036 3.22578 4.5206C3.35628 3.9986 3.6169 3.80322 4.13928 3.67272C4.98753 2.9546 7.40178 3.8681 8.24928 4.2596C10.6635 5.2376 12.6859 6.15185 14.7087 7.52172C15.6218 8.17422 16.6005 9.41397 17.7747 9.74022H19.1449C21.2329 10.1966 23.5811 9.87072 25.5386 10.4576C28.9969 11.5665 32.1281 13.1977 34.9339 14.9595C43.4809 20.3745 50.5264 28.0732 55.2896 37.2723C56.0726 38.7723 56.3985 40.1433 57.1163 41.7086C58.4869 44.9058 60.183 48.168 61.5525 51.2996C62.9228 54.3656 64.2274 57.4976 66.1849 60.0424C67.1636 61.4119 71.0779 62.13 72.8396 62.8477C74.1446 63.4346 76.1674 63.957 77.3415 64.6744C79.5596 66.0439 81.7778 67.6106 83.8658 69.1106C84.9098 69.8936 88.1715 71.5249 88.3676 72.8295V72.8295Z" fill="#00546B"/>
<path d="M21.82 16.1333C20.7111 16.1333 19.9285 16.2646 19.1455 16.4599V16.5904H19.276C19.7984 17.6344 20.7111 18.3522 21.3633 19.2653C21.8856 20.3089 22.342 21.3533 22.8644 22.3973C22.9293 22.3317 22.9945 22.2668 22.9945 22.2668C23.9084 21.6139 24.3648 20.5703 24.3648 19.0043C23.9733 18.5479 23.908 18.0912 23.5818 17.6344C23.1906 16.9816 22.342 16.6557 21.82 16.1333V16.1333Z" fill="#00546B"/>
</g>
<defs>
<clipPath id="clip0_195_81">
<rect width="96" height="94.5024" fill="white"/>
</clipPath>
</defs>
</svg>
