<svg width="120" height="74" viewBox="0 0 120 74" fill="none" xmlns="http://www.w3.org/2000/svg">
<g clip-path="url(#clip0_195_84)">
<path d="M59.3228 73.3717C58.9166 73.3717 58.5375 73.2634 58.1853 73.0738L54.5832 70.9343C54.0413 70.6362 54.3123 70.5279 54.4749 70.4738C55.206 70.2301 55.3415 70.1757 56.0998 69.7426C56.1811 69.6883 56.2896 69.7154 56.3707 69.7696L59.1334 71.4217C59.2417 71.4758 59.3771 71.4758 59.4582 71.4217L70.265 65.1652C70.3732 65.111 70.4276 65.0025 70.4276 64.8673V52.3815C70.4276 52.2458 70.3732 52.1378 70.265 52.0834L59.4582 45.8541C59.3499 45.7997 59.2145 45.7997 59.1334 45.8541L48.3266 52.0834C48.2184 52.1375 48.164 52.273 48.164 52.3812V64.8671C48.164 64.9756 48.2184 65.1108 48.3266 65.1652L51.2789 66.8714C52.8769 67.6839 53.879 66.736 53.879 65.7881V53.4646C53.879 53.3022 54.0144 53.1396 54.204 53.1396H55.5852C55.7478 53.1396 55.9102 53.275 55.9102 53.4646V65.7881C55.9102 67.9276 54.7456 69.1736 52.7143 69.1736C52.0914 69.1736 51.6039 69.1736 50.2225 68.4964L47.3787 66.8714C46.6745 66.4653 46.2412 65.7067 46.2412 64.8943V52.4084C46.2412 51.596 46.6745 50.8374 47.3787 50.4313L58.1853 44.1748C58.8625 43.7956 59.7835 43.7956 60.4605 44.1748L71.267 50.4313C71.9712 50.8374 72.4048 51.596 72.4048 52.4084V64.8943C72.4048 65.7067 71.9712 66.4653 71.267 66.8714L60.4605 73.1279C60.1083 73.2906 59.7022 73.3717 59.323 73.3717H59.3228ZM62.6542 64.786C57.9146 64.786 56.9395 62.6193 56.9395 60.7776C56.9395 60.6149 57.0749 60.4525 57.2645 60.4525H58.6729C58.8353 60.4525 58.9708 60.5608 58.9708 60.7234C59.1875 62.1588 59.8104 62.863 62.6814 62.863C64.9564 62.863 65.9317 62.3484 65.9317 61.1295C65.9317 60.4253 65.6606 59.911 62.1126 59.5587C59.1604 59.2606 57.3186 58.6108 57.3186 56.2545C57.3186 54.0606 59.1606 52.7604 62.2481 52.7604C65.7147 52.7604 67.4212 53.9523 67.638 56.5521C67.638 56.6337 67.6108 56.7147 67.5567 56.7961C67.5023 56.8502 67.4212 56.9043 67.3399 56.9043H65.9315C65.796 56.9043 65.6606 56.7961 65.6336 56.6606C65.3086 55.1711 64.4689 54.6834 62.2481 54.6834C59.7563 54.6834 59.4582 55.5503 59.4582 56.2001C59.4582 56.9856 59.8104 57.2294 63.1688 57.6627C66.5002 58.0962 68.0713 58.7191 68.0713 61.0482C68.0441 63.4317 66.0941 64.786 62.6542 64.786Z" fill="#539E43"/>
<path d="M25.7928 24.5386C25.7928 24.0512 25.5219 23.5905 25.0886 23.3467L13.6048 16.7382C13.4149 16.6297 13.1984 16.5756 12.9819 16.5484H12.8734C12.6568 16.5484 12.4401 16.6297 12.2505 16.7382L0.766704 23.3467C0.333167 23.5905 0.0625 24.051 0.0625 24.5386L0.0896839 42.3059C0.0896839 42.5496 0.225135 42.7933 0.441669 42.9018C0.658437 43.0373 0.929104 43.0373 1.11892 42.9018L7.94419 39.0016C8.37749 38.7579 8.64839 38.2974 8.64839 37.81V29.495C8.64839 29.0076 8.91906 28.5471 9.3526 28.3034L12.2505 26.624C12.4673 26.4886 12.711 26.4342 12.9547 26.4342C13.1984 26.4342 13.4421 26.4886 13.632 26.624L16.5298 28.3034C16.9634 28.5471 17.2341 29.0073 17.2341 29.495V37.81C17.2341 38.2974 17.505 38.7579 17.9383 39.0016L24.7635 42.9018C24.9803 43.0373 25.251 43.0373 25.4677 42.9018C25.6845 42.7933 25.8199 42.5496 25.8199 42.3059L25.7928 24.5386ZM80.9908 0.0813149C80.7743 -0.0271864 80.5034 -0.0271864 80.3136 0.0813149C80.0971 0.216766 79.9616 0.4333 79.9616 0.677017V18.2821C79.9616 18.4445 79.8805 18.6069 79.7179 18.7154C79.5555 18.7965 79.3928 18.7965 79.2304 18.7154L76.3595 17.0633C76.149 16.9434 75.911 16.8804 75.6688 16.8804C75.4266 16.8804 75.1885 16.9434 74.978 17.0633L63.4943 23.699C63.061 23.9427 62.79 24.4032 62.79 24.8906V38.1348C62.79 38.6222 63.061 39.0829 63.4943 39.3267L74.978 45.9623C75.1885 46.0822 75.4266 46.1452 75.6688 46.1452C75.911 46.1452 76.149 46.0822 76.3595 45.9623L87.8433 39.3267C88.2766 39.0829 88.5475 38.6225 88.5475 38.1348V5.11901C88.5475 4.60439 88.2766 4.14414 87.8433 3.90018L80.9911 0.0813149H80.9908ZM79.9347 33.7743C79.9347 33.9098 79.8805 34.0181 79.772 34.0722L75.8449 36.3472C75.79 36.374 75.7298 36.3879 75.6688 36.3879C75.6077 36.3879 75.5475 36.374 75.4927 36.3472L71.5655 34.0722C71.457 34.0181 71.4029 33.8826 71.4029 33.7743V29.2241C71.4029 29.0886 71.457 28.9804 71.5655 28.9262L75.4927 26.651C75.5475 26.6242 75.6077 26.6103 75.6688 26.6103C75.7298 26.6103 75.79 26.6242 75.8449 26.651L79.772 28.9262C79.8805 28.9801 79.9347 29.1158 79.9347 29.2241V33.7743ZM119.207 29.1158C119.64 28.8721 119.884 28.4116 119.884 27.924V24.701C119.884 24.2136 119.613 23.7531 119.207 23.5094L107.804 16.9009C107.594 16.7811 107.356 16.7181 107.114 16.7181C106.872 16.7181 106.634 16.7811 106.423 16.9009L94.9395 23.5363C94.5059 23.78 94.2353 24.2405 94.2353 24.7282V37.9724C94.2353 38.4598 94.5059 38.9203 94.9395 39.164L106.342 45.6643C106.775 45.908 107.29 45.908 107.696 45.6643L114.603 41.8187C114.819 41.7102 114.955 41.4665 114.955 41.2227C114.955 40.979 114.819 40.7353 114.603 40.6268L103.065 33.9911C102.848 33.8559 102.713 33.6391 102.713 33.3954V29.2515C102.713 29.0078 102.848 28.7641 103.065 28.6556L106.667 26.5971C106.772 26.5307 106.894 26.4955 107.019 26.4955C107.144 26.4955 107.266 26.5307 107.371 26.5971L110.973 28.6556C111.19 28.791 111.325 29.0076 111.325 29.2515V32.5016C111.325 32.7453 111.461 32.9891 111.677 33.0973C111.894 33.2328 112.165 33.2328 112.382 33.0973L119.207 29.1158V29.1158Z" fill="#333333"/>
<path d="M106.938 28.493C106.978 28.4665 107.025 28.4524 107.073 28.4524C107.121 28.4524 107.168 28.4665 107.208 28.493L109.402 29.7659C109.484 29.8198 109.538 29.9011 109.538 30.0096V32.5555C109.538 32.6638 109.484 32.7451 109.402 32.7993L107.208 34.0722C107.168 34.0987 107.121 34.1128 107.073 34.1128C107.025 34.1128 106.978 34.0987 106.938 34.0722L104.744 32.7993C104.663 32.7451 104.608 32.6638 104.608 32.5555V30.0096C104.608 29.9011 104.663 29.8198 104.744 29.7659L106.938 28.493V28.493Z" fill="#539E43"/>
<mask id="mask0_195_84" style="mask-type:alpha" maskUnits="userSpaceOnUse" x="31" y="16" width="27" height="30">
<path d="M44.9951 16.955C44.7847 16.8352 44.5467 16.7722 44.3045 16.7722C44.0624 16.7722 43.8244 16.8352 43.6139 16.955L32.2114 23.5361C31.7779 23.7798 31.5342 24.2403 31.5342 24.7277V37.918C31.5342 38.4055 31.8051 38.8659 32.2114 39.1097L43.6139 45.6912C43.8244 45.811 44.0624 45.874 44.3045 45.874C44.5467 45.874 44.7847 45.811 44.9951 45.6912L56.3978 39.1097C56.8311 38.8659 57.0751 38.4055 57.0751 37.918V24.728C57.0751 24.2405 56.804 23.78 56.3978 23.5363L44.9951 16.955Z" fill="white"/>
</mask>
<g mask="url(#mask0_195_84)">
<path d="M44.9951 16.955C44.7847 16.8352 44.5467 16.7722 44.3045 16.7722C44.0624 16.7722 43.8244 16.8352 43.6139 16.955L32.2114 23.5361C31.7779 23.7798 31.5342 24.2403 31.5342 24.7277V37.918C31.5342 38.4055 31.8051 38.8659 32.2114 39.1097L43.6139 45.6912C43.8244 45.811 44.0624 45.874 44.3045 45.874C44.5467 45.874 44.7847 45.811 44.9951 45.6912L56.3978 39.1097C56.8311 38.8659 57.0751 38.4055 57.0751 37.918V24.728C57.0751 24.2405 56.804 23.78 56.3978 23.5363L44.9951 16.955Z" fill="url(#paint0_linear_195_84)"/>
<path d="M56.4242 23.5363L44.9676 16.955C44.8551 16.8981 44.7371 16.8527 44.6154 16.8195L31.7773 38.8122C31.8837 38.9421 32.0121 39.0521 32.1567 39.1373L43.6134 45.7188C43.9384 45.9084 44.3176 45.9625 44.6695 45.854L56.7223 23.8074C56.641 23.6992 56.5325 23.6176 56.4242 23.5365V23.5363Z" fill="url(#paint1_linear_195_84)"/>
<path fill-rule="evenodd" clip-rule="evenodd" d="M56.4517 39.1099C56.7767 38.9203 57.0205 38.5952 57.129 38.2433L44.5613 16.7924C44.2363 16.7382 43.8841 16.7652 43.5865 16.9548L32.2109 23.5094L44.48 45.881C44.6584 45.8518 44.8318 45.7971 44.9946 45.7186L56.4515 39.1101L56.4517 39.1099Z" fill="url(#paint2_linear_195_84)"/>
<path fill-rule="evenodd" clip-rule="evenodd" d="M56.4521 39.1099L45.0224 45.6914C44.8611 45.7737 44.6872 45.8286 44.5078 45.8538L44.7246 46.2602L57.4 38.9205V38.7579L57.075 38.2161C57.0208 38.5952 56.7771 38.9203 56.4521 39.1099V39.1099Z" fill="url(#paint3_linear_195_84)"/>
<path fill-rule="evenodd" clip-rule="evenodd" d="M56.4521 39.1099L45.0224 45.6914C44.8611 45.7737 44.6872 45.8286 44.5078 45.8538L44.7246 46.2602L57.4 38.9205V38.7579L57.075 38.2161C57.0208 38.5952 56.7771 38.9203 56.4521 39.1099V39.1099Z" fill="url(#paint4_linear_195_84)"/>
</g>
</g>
<defs>
<linearGradient id="paint0_linear_195_84" x1="48.95" y1="21.8612" x2="36.4518" y2="41.4996" gradientUnits="userSpaceOnUse">
<stop stop-color="#41873F"/>
<stop offset="0.3288" stop-color="#418B3D"/>
<stop offset="0.6352" stop-color="#419637"/>
<stop offset="0.9319" stop-color="#3FA92D"/>
<stop offset="1" stop-color="#3FAE2A"/>
</linearGradient>
<linearGradient id="paint1_linear_195_84" x1="42.5728" y1="32.8681" x2="73.874" y2="15.862" gradientUnits="userSpaceOnUse">
<stop offset="0.1376" stop-color="#41873F"/>
<stop offset="0.4032" stop-color="#54A044"/>
<stop offset="0.7136" stop-color="#66B848"/>
<stop offset="0.9081" stop-color="#6CC04A"/>
</linearGradient>
<linearGradient id="paint2_linear_195_84" x1="31.1173" y1="31.3235" x2="57.5025" y2="31.3235" gradientUnits="userSpaceOnUse">
<stop offset="0.09192" stop-color="#6CC04A"/>
<stop offset="0.2864" stop-color="#66B848"/>
<stop offset="0.5968" stop-color="#54A044"/>
<stop offset="0.8624" stop-color="#41873F"/>
</linearGradient>
<linearGradient id="paint3_linear_195_84" x1="31.1178" y1="42.2602" x2="57.5028" y2="42.2602" gradientUnits="userSpaceOnUse">
<stop offset="0.09192" stop-color="#6CC04A"/>
<stop offset="0.2864" stop-color="#66B848"/>
<stop offset="0.5968" stop-color="#54A044"/>
<stop offset="0.8624" stop-color="#41873F"/>
</linearGradient>
<linearGradient id="paint4_linear_195_84" x1="61.3467" y1="21.2375" x2="54.6624" y2="56.2632" gradientUnits="userSpaceOnUse">
<stop stop-color="#41873F"/>
<stop offset="0.3288" stop-color="#418B3D"/>
<stop offset="0.6352" stop-color="#419637"/>
<stop offset="0.9319" stop-color="#3FA92D"/>
<stop offset="1" stop-color="#3FAE2A"/>
</linearGradient>
<clipPath id="clip0_195_84">
<rect width="120" height="73.584" fill="white"/>
</clipPath>
</defs>
</svg>
