<svg width="96" height="110" viewBox="0 0 96 110" fill="none" xmlns="http://www.w3.org/2000/svg">
<path d="M96 54.7044C96 48.3449 88.0359 42.318 75.8255 38.5805C78.6433 26.1353 77.391 16.234 71.8728 13.064C70.6009 12.3204 69.1137 11.9682 67.4896 11.9682V16.3318C68.3897 16.3318 69.1137 16.5079 69.7203 16.8406C72.3816 18.3669 73.5361 24.1785 72.636 31.6535C72.4207 33.4928 72.0685 35.4301 71.638 37.4064C67.8027 36.4672 63.6152 35.7431 59.2124 35.2735C56.5707 31.6535 53.8312 28.3661 51.0722 25.4896C57.4513 19.5605 63.4391 16.3122 67.5092 16.3122V11.9486C62.128 11.9486 55.0836 15.7839 47.9609 22.437C40.8382 15.823 33.7937 12.0269 28.4126 12.0269V16.3905C32.4631 16.3905 38.4704 19.6192 44.8496 25.5091C42.1101 28.3856 39.3706 31.6535 36.768 35.2735C32.3457 35.7431 28.1582 36.4672 24.3229 37.426C23.8728 35.4692 23.5402 33.5711 23.3053 31.7513C22.3856 24.2764 23.5206 18.4647 26.1623 16.9188C26.7493 16.5666 27.5124 16.4101 28.4126 16.4101V12.0464C26.7689 12.0464 25.2817 12.3987 23.9902 13.1422C18.4916 16.3122 17.2589 26.194 20.0962 38.6001C7.92499 42.3571 0 48.3644 0 54.7044C0 61.064 7.96412 67.0909 20.1745 70.8283C17.3567 83.2735 18.6091 93.1749 24.1272 96.3449C25.3991 97.0884 26.8863 97.4407 28.53 97.4407C33.9111 97.4407 40.9556 93.6054 48.0783 86.9523C55.201 93.5662 62.2454 97.3624 67.6266 97.3624C69.2703 97.3624 70.7574 97.0102 72.0489 96.2666C77.5475 93.0966 78.7803 83.2148 75.9429 70.8088C88.075 67.0713 96 61.0444 96 54.7044V54.7044ZM70.5226 41.6526C69.7986 44.1769 68.8985 46.7794 67.881 49.382C67.0787 47.8165 66.2373 46.2511 65.3176 44.6857C64.4174 43.1202 63.4586 41.5939 62.4998 40.1068C65.2784 40.5177 67.9592 41.0265 70.5226 41.6526ZM61.5605 62.4924C60.0342 65.1341 58.4688 67.6388 56.8447 69.9674C53.9291 70.2217 50.9743 70.3587 48 70.3587C45.0453 70.3587 42.0905 70.2217 39.1945 69.9869C37.5703 67.6584 35.9853 65.1732 34.459 62.5511C32.9719 59.9877 31.6217 57.3852 30.3889 54.7631C31.6021 52.141 32.9719 49.5189 34.4395 46.9555C35.9658 44.3139 37.5312 41.8092 39.1553 39.4806C42.0709 39.2262 45.0257 39.0893 48 39.0893C50.9548 39.0893 53.9095 39.2262 56.8055 39.461C58.4297 41.7896 60.0147 44.2747 61.541 46.8968C63.0281 49.4602 64.3783 52.0628 65.6111 54.6848C64.3783 57.3069 63.0281 59.929 61.5605 62.4924ZM67.881 59.9486C68.9376 62.5707 69.8378 65.1928 70.5813 67.7366C68.0179 68.3628 65.3176 68.8911 62.5194 69.3021C63.4782 67.7953 64.437 66.2495 65.3371 64.6645C66.2373 63.099 67.0787 61.514 67.881 59.9486ZM48.0391 80.8275C46.2193 78.949 44.3995 76.8553 42.5993 74.5658C44.3604 74.6441 46.1606 74.7028 47.9804 74.7028C49.8198 74.7028 51.6396 74.6636 53.4203 74.5658C51.6592 76.8553 49.8394 78.949 48.0391 80.8275ZM33.4806 69.3021C30.702 68.8911 28.0212 68.3824 25.4578 67.7562C26.1818 65.2319 27.0819 62.6294 28.0995 60.0269C28.9018 61.5923 29.7432 63.1577 30.6629 64.7232C31.5826 66.2886 32.5218 67.8149 33.4806 69.3021ZM47.9413 28.5813C49.7611 30.4598 51.5809 32.5536 53.3812 34.843C51.6201 34.7648 49.8198 34.706 48 34.706C46.1606 34.706 44.3408 34.7452 42.5601 34.843C44.3212 32.5536 46.1411 30.4598 47.9413 28.5813ZM33.4611 40.1068C32.5022 41.6135 31.5434 43.1594 30.6433 44.7444C29.7432 46.3098 28.9018 47.8752 28.0995 49.4407C27.0428 46.8186 26.1427 44.1965 25.3991 41.6526C27.9625 41.046 30.6629 40.5177 33.4611 40.1068V40.1068ZM15.7521 64.6058C8.82512 61.651 4.34407 57.7766 4.34407 54.7044C4.34407 51.6323 8.82512 47.7383 15.7521 44.8031C17.435 44.0791 19.2744 43.4333 21.1724 42.8267C22.2878 46.662 23.7554 50.6539 25.5752 54.7436C23.775 58.8137 22.327 62.7859 21.2311 66.6017C19.2939 65.9951 17.4545 65.3298 15.7521 64.6058ZM26.2797 92.5683C23.6184 91.042 22.4639 85.2303 23.364 77.7554C23.5793 75.916 23.9315 73.9788 24.362 72.0024C28.1973 72.9417 32.3848 73.6657 36.7876 74.1353C39.4293 77.7554 42.1688 81.0428 44.9278 83.9193C38.5487 89.8483 32.5609 93.0966 28.4908 93.0966C27.6103 93.077 26.8667 92.9009 26.2797 92.5683V92.5683ZM72.6947 77.6575C73.6144 85.1325 72.4794 90.9441 69.8377 92.49C69.2507 92.8422 68.4876 92.9988 67.5874 92.9988C63.5369 92.9988 57.5296 89.7701 51.1504 83.8801C53.8899 81.0036 56.6294 77.7358 59.232 74.1158C63.6543 73.6461 67.8418 72.9221 71.6771 71.9633C72.1272 73.9396 72.4794 75.8377 72.6947 77.6575V77.6575ZM80.2283 64.6058C78.5455 65.3298 76.7061 65.9755 74.808 66.5821C73.6926 62.7468 72.225 58.755 70.4052 54.6653C72.2055 50.5952 73.6535 46.6229 74.7493 42.8071C76.6865 43.4138 78.5259 44.0791 80.2479 44.8031C87.1749 47.7578 91.6559 51.6323 91.6559 54.7044C91.6364 57.7766 87.1553 61.6706 80.2283 64.6058V64.6058Z" fill="#61DAFB"/>
<path d="M47.9806 63.6469C52.9194 63.6469 56.9231 59.6432 56.9231 54.7044C56.9231 49.7655 52.9194 45.7618 47.9806 45.7618C43.0418 45.7618 39.0381 49.7655 39.0381 54.7044C39.0381 59.6432 43.0418 63.6469 47.9806 63.6469Z" fill="#61DAFB"/>
</svg>
