<?xml version="1.0" standalone="no"?>
<!DOCTYPE svg PUBLIC "-//W3C//DTD SVG 20010904//EN"
 "http://www.w3.org/TR/2001/REC-SVG-20010904/DTD/svg10.dtd">
<svg version="1.0" xmlns="http://www.w3.org/2000/svg"
 width="664.000000pt" height="664.000000pt" viewBox="0 0 664.000000 664.000000"
 preserveAspectRatio="xMidYMid meet">
<metadata>
Created by potrace 1.14, written by Peter Selinger 2001-2017
</metadata>
<g transform="translate(0.000000,664.000000) scale(0.100000,-0.100000)"
fill="#000000" stroke="none">
<path d="M2387 6088 c-26 -60 -109 -252 -125 -288 -9 -19 -17 -38 -18 -42 -1
-5 -3 -11 -4 -15 -1 -5 -2 -11 -1 -15 0 -5 -3 -8 -7 -8 -4 0 -14 -17 -21 -37
-7 -21 -19 -51 -27 -68 -25 -55 -345 -800 -348 -810 -2 -5 -8 -21 -13 -35 -6
-14 -11 -27 -11 -30 0 -3 -13 -30 -28 -60 -15 -30 -27 -60 -27 -67 0 -7 -4
-13 -8 -13 -4 0 -10 -11 -13 -25 -4 -14 -17 -49 -30 -78 -37 -80 -128 -291
-130 -302 -2 -5 -15 -37 -30 -70 -16 -33 -33 -71 -38 -85 -27 -65 -114 -266
-153 -355 -7 -16 -35 -84 -63 -150 -27 -66 -62 -147 -77 -180 -29 -65 -52
-118 -64 -150 -16 -40 -29 -71 -51 -119 -12 -27 -48 -112 -81 -190 -63 -148
-80 -186 -109 -251 -10 -22 -41 -96 -70 -165 -29 -69 -57 -134 -63 -145 -6
-11 -12 -25 -13 -30 -1 -6 -11 -31 -22 -55 -11 -25 -61 -142 -111 -260 -50
-118 -98 -228 -105 -245 -8 -16 -21 -46 -29 -65 -30 -72 -49 -116 -62 -145
-18 -37 -94 -218 -100 -235 -3 -8 -20 -48 -70 -160 -26 -58 -50 -117 -55 -131
-4 -14 -12 -34 -18 -45 -13 -22 -53 -115 -56 -129 -1 -5 -15 -37 -30 -70 -16
-33 -33 -71 -38 -85 -14 -34 -33 -78 -52 -120 l-15 -35 516 -3 c284 -1 520 1
523 5 4 5 24 49 45 98 48 114 123 291 140 330 7 17 57 134 110 260 54 127 103
244 111 260 7 17 54 127 104 245 50 118 96 226 102 240 6 14 17 39 24 55 7 17
21 50 32 75 11 25 32 74 46 110 15 36 31 74 36 85 36 76 90 211 90 222 0 7 5
13 10 13 6 0 10 7 10 15 0 9 9 35 20 57 11 23 20 48 20 55 0 7 4 13 10 13 5 0
9 3 8 8 -1 8 -4 2 80 197 35 83 64 156 65 163 0 6 4 12 9 12 4 0 8 7 8 15 0 8
4 23 10 33 5 9 16 33 24 52 8 19 33 77 55 128 22 50 36 92 33 92 -4 0 -2 4 3
8 6 4 21 34 34 67 13 33 35 83 48 112 12 28 23 54 23 56 0 2 9 26 21 52 15 34
24 44 29 34 5 -7 6 -17 3 -22 -8 -13 -11 -57 -4 -57 7 0 6 -78 -1 -86 -3 -3
-3 -19 1 -37 4 -18 5 -43 4 -57 -2 -14 -3 -36 -2 -50 0 -14 0 -31 0 -37 -2
-27 -3 -79 -2 -108 0 -16 1 -41 1 -55 0 -14 2 -49 3 -78 1 -28 -1 -52 -5 -52
-4 0 -5 -6 -3 -12 9 -25 12 -99 5 -103 -5 -3 -4 -20 0 -39 4 -19 5 -38 2 -41
-7 -7 -5 -112 3 -125 3 -5 1 -11 -4 -14 -6 -4 -6 -18 -1 -35 4 -15 4 -34 0
-41 -4 -7 -4 -26 0 -41 5 -16 5 -31 0 -34 -4 -3 -5 -20 -1 -37 4 -18 6 -42 5
-53 -1 -11 -3 -32 -3 -48 -1 -15 -1 -39 -2 -55 -1 -37 -2 -61 0 -97 0 -16 1
-41 1 -55 0 -14 2 -49 3 -78 1 -28 -1 -52 -5 -52 -4 0 -5 -6 -3 -12 9 -25 12
-99 5 -103 -5 -3 -4 -20 0 -39 4 -19 5 -38 2 -41 -7 -7 -5 -112 3 -125 3 -5 1
-11 -4 -14 -6 -4 -6 -18 -1 -35 4 -15 4 -34 0 -41 -4 -7 -4 -26 0 -41 5 -16 5
-31 0 -34 -4 -3 -4 -21 0 -40 4 -19 4 -37 0 -40 -5 -3 -5 -18 -1 -33 5 -15 5
-36 1 -47 -4 -11 -4 -32 1 -47 4 -15 4 -30 -1 -33 -4 -3 -4 -21 0 -40 4 -19 4
-37 0 -40 -4 -3 -4 -21 0 -40 4 -19 4 -37 0 -40 -5 -3 -5 -18 -1 -33 5 -15 5
-36 1 -47 -4 -11 -4 -32 1 -47 4 -15 4 -30 -1 -33 -4 -3 -4 -21 0 -40 4 -19 4
-37 0 -40 -4 -3 -4 -21 0 -40 4 -19 4 -37 0 -40 -5 -3 -5 -18 -1 -33 5 -15 5
-36 1 -47 -4 -11 -4 -32 1 -47 4 -15 4 -30 -1 -33 -4 -3 -4 -21 0 -40 4 -20 4
-38 -1 -41 -5 -3 -7 -10 -3 -15 3 -6 6 -32 6 -60 l-1 -49 600 0 599 0 1 23 c1
12 1 26 0 30 -1 4 -1 18 -1 30 0 12 0 38 -1 57 -1 19 -1 47 0 63 0 15 1 50 1
77 0 28 0 57 0 65 0 8 0 22 0 30 0 8 0 38 0 65 1 28 1 60 1 73 1 12 1 33 0 47
-3 80 -3 96 -2 108 1 18 2 37 1 136 0 49 3 92 5 97 3 4 1 10 -3 13 -5 3 -6 25
-2 49 3 23 3 55 -1 69 -4 14 -3 31 1 38 4 7 4 26 1 44 -4 17 -5 42 -4 56 2 14
3 46 3 73 0 26 0 54 0 62 0 8 0 22 0 30 0 8 0 38 0 65 1 28 1 60 1 73 1 12 1
33 0 47 -3 80 -3 96 -2 108 1 18 2 40 1 106 0 32 2 61 4 64 3 3 25 6 48 8 24
2 61 5 83 8 58 7 243 23 355 31 36 3 83 7 105 9 22 3 78 8 125 11 47 4 99 8
115 10 152 15 179 18 273 30 20 2 57 7 82 10 25 3 56 7 70 10 14 3 41 7 60 9
34 5 67 11 120 21 14 3 36 8 50 10 24 5 42 9 93 20 12 3 38 8 57 11 19 3 44
11 55 17 11 6 20 9 20 8 0 -6 91 21 175 50 47 17 90 32 95 33 87 25 402 198
413 227 2 5 8 9 13 9 16 0 229 200 229 215 0 4 20 30 45 59 41 46 130 210 186
341 11 28 40 116 44 138 3 10 7 27 10 37 3 10 8 29 11 42 7 34 13 60 19 88 3
14 8 41 11 60 2 19 7 46 9 60 27 146 27 544 1 731 -7 47 -27 143 -41 189 -7
25 -13 47 -13 50 -9 68 -85 250 -157 375 -19 33 -42 74 -51 90 -9 17 -20 32
-23 35 -4 3 -22 25 -41 50 -80 104 -166 188 -305 298 -85 68 -387 232 -426
232 -10 0 -19 5 -19 10 0 6 -3 9 -7 8 -5 0 -15 1 -23 4 -61 23 -110 39 -126
43 -11 3 -61 16 -112 29 -51 13 -107 27 -125 29 -17 3 -39 8 -47 11 -8 3 -33
8 -55 11 -22 3 -56 8 -75 11 -19 3 -596 8 -1282 10 l-1247 5 -14 -33z m1963
-942 c127 -15 156 -19 175 -22 11 -3 52 -11 90 -19 147 -29 389 -128 441 -179
8 -9 20 -16 26 -16 12 0 178 -167 178 -179 0 -5 6 -16 13 -23 28 -30 84 -155
93 -208 3 -14 10 -43 16 -65 8 -32 21 -171 19 -220 -6 -219 -74 -425 -186
-565 -103 -128 -290 -253 -455 -304 -30 -10 -62 -20 -70 -23 -63 -24 -253 -59
-380 -70 -187 -15 -544 -4 -675 22 -11 2 -23 4 -26 4 -7 1 -10 70 -8 166 1 11
0 40 -2 95 -1 19 -1 47 0 63 0 15 1 50 1 77 0 28 0 57 0 65 0 8 0 22 0 30 0 8
0 36 0 63 -1 26 1 56 3 67 2 11 1 32 -3 46 -4 15 -4 32 0 39 4 6 4 27 0 46 -4
19 -4 36 0 39 5 3 5 18 0 34 -4 15 -4 34 0 41 4 6 4 26 1 44 -4 17 -5 42 -4
56 2 14 3 46 3 73 0 26 0 54 0 62 0 8 0 22 0 30 0 8 0 38 0 65 1 28 1 60 1 73
1 12 1 33 0 47 -3 80 -3 96 -2 108 1 18 2 37 1 136 0 49 3 92 5 97 3 4 2 10
-3 13 -4 3 -5 29 -2 59 3 30 3 66 -1 81 -4 14 -4 26 -1 27 4 0 21 2 37 4 17 3
46 7 65 9 19 3 80 8 135 12 55 3 101 7 102 8 6 5 362 -2 413 -8z"/>
</g>
</svg>
