<?xml version="1.0" standalone="no"?>
<!DOCTYPE svg PUBLIC "-//W3C//DTD SVG 20010904//EN"
 "http://www.w3.org/TR/2001/REC-SVG-20010904/DTD/svg10.dtd">
<svg version="1.0" xmlns="http://www.w3.org/2000/svg"
 width="1088.000000pt" height="1088.000000pt" viewBox="0 0 1088.000000 1088.000000"
 preserveAspectRatio="xMidYMid meet">
<metadata>
Created by potrace 1.14, written by Peter Selinger 2001-2017
</metadata>
<g transform="translate(0.000000,1088.000000) scale(0.100000,-0.100000)"
fill="#000000" stroke="none">
<path d="M2039 8130 c-9 -6 -139 -360 -139 -379 0 -6 -4 -11 -8 -11 -5 0 -9
-6 -10 -12 -1 -13 -25 -82 -87 -253 -20 -55 -38 -104 -39 -110 -3 -10 -20 -55
-33 -85 -3 -8 -7 -18 -8 -22 -2 -5 -4 -10 -5 -13 -1 -3 -3 -8 -4 -12 -1 -8
-20 -58 -36 -98 -27 -65 -104 -291 -102 -297 1 -5 -3 -8 -8 -8 -5 0 -9 -3 -8
-7 2 -5 -15 -55 -36 -113 -21 -58 -72 -197 -112 -310 -41 -113 -81 -221 -89
-240 -15 -40 -88 -242 -111 -310 -9 -25 -20 -54 -25 -65 -5 -11 -24 -63 -43
-115 -35 -98 -127 -353 -197 -545 -23 -60 -56 -150 -74 -200 -18 -49 -36 -99
-41 -110 -4 -11 -8 -22 -8 -25 -1 -3 -5 -11 -9 -17 -5 -7 -6 -13 -2 -13 3 0
-1 -13 -10 -30 -8 -16 -15 -31 -14 -32 0 -2 -4 -14 -9 -28 -5 -14 -11 -29 -12
-35 -2 -5 -17 -46 -33 -90 -16 -44 -42 -116 -58 -160 -16 -44 -32 -87 -35 -95
-4 -8 -8 -19 -8 -25 -1 -5 -7 -21 -13 -35 -15 -33 -104 -274 -107 -292 -2 -7
-8 -26 -14 -41 -7 -16 -12 -31 -12 -34 0 -3 -6 -19 -14 -36 -7 -18 -19 -45
-25 -62 -6 -16 -16 -43 -22 -60 -7 -16 -13 -34 -14 -40 -3 -11 -190 -526 -229
-627 -14 -38 -22 -68 -18 -68 4 0 2 -4 -3 -8 -6 -4 -16 -23 -22 -42 -6 -19
-24 -73 -41 -119 l-31 -83 25 5 c13 2 27 1 29 -4 3 -4 18 -4 33 0 15 4 39 5
53 1 15 -4 32 -4 39 0 7 4 24 5 39 1 14 -4 35 -6 46 -5 11 1 32 3 47 3 16 1
40 1 55 2 16 0 37 2 48 3 11 1 35 -1 53 -5 17 -4 34 -3 37 1 3 4 21 4 40 0 19
-4 35 -4 35 0 0 4 16 4 35 0 19 -4 37 -4 40 0 3 4 20 5 37 1 18 -4 42 -6 53
-5 11 1 32 3 48 3 15 1 39 1 55 2 15 0 36 2 47 3 11 1 34 -1 51 -5 18 -3 38
-3 44 1 7 4 26 4 41 0 16 -5 31 -5 34 0 3 5 18 5 34 0 15 -4 34 -4 41 0 7 4
25 4 40 0 15 -4 33 -4 40 0 6 4 27 4 46 0 19 -4 36 -4 39 0 3 5 18 5 34 0 15
-4 34 -4 41 0 7 4 26 4 41 0 16 -5 31 -5 34 0 3 4 20 5 38 1 18 -5 41 -5 52
-1 11 4 25 5 31 3 6 -2 22 36 38 89 15 51 31 102 36 113 5 11 57 166 116 345
59 179 110 327 114 330 10 6 1908 6 1914 -1 2 -2 19 -51 39 -109 19 -58 83
-251 142 -430 59 -179 114 -330 122 -337 9 -7 25 -8 42 -3 16 4 34 4 41 0 7
-4 24 -5 39 -1 26 7 85 5 108 -4 7 -2 15 0 18 4 3 5 21 5 40 1 19 -4 35 -4 35
0 0 4 16 4 35 0 19 -4 37 -4 40 0 3 4 20 5 37 1 18 -4 42 -6 53 -5 11 1 32 3
48 3 15 1 39 1 55 2 15 0 36 2 47 3 11 1 34 -1 51 -5 18 -3 38 -3 44 1 7 4 26
4 41 0 16 -5 31 -5 34 0 3 5 18 5 34 0 15 -4 34 -4 41 0 7 4 24 5 39 1 14 -4
35 -6 46 -5 11 1 32 3 48 3 15 1 39 1 55 2 15 0 36 2 47 3 11 1 35 -1 53 -5
17 -4 34 -3 37 1 3 4 21 4 40 0 23 -5 35 -4 35 3 0 8 3 8 11 0 7 -7 21 -8 39
-3 16 5 31 6 34 3 4 -4 146 -5 194 -1 15 2 11 30 -10 78 -8 19 -25 67 -38 105
-12 39 -25 75 -29 80 -3 6 -6 12 -6 15 -2 12 -28 86 -35 95 -3 6 -12 30 -20
55 -7 25 -17 49 -22 55 -4 5 -8 17 -8 27 0 10 -4 26 -9 36 -12 21 -33 78 -117
312 -37 102 -81 226 -99 275 -18 50 -56 155 -85 235 -28 80 -55 154 -60 165
-5 11 -41 110 -80 220 -39 110 -75 209 -80 220 -9 20 -49 132 -54 150 -1 6
-10 27 -19 49 -9 21 -17 41 -17 44 0 2 -59 167 -131 366 -72 198 -149 411
-171 471 -22 61 -43 119 -48 130 -5 11 -32 85 -60 165 -28 80 -57 160 -65 178
-8 18 -15 37 -15 42 0 5 -5 21 -12 37 -6 15 -12 33 -14 38 -3 11 -42 117 -94
255 -17 47 -41 114 -54 150 -66 185 -199 551 -216 594 -11 27 -20 56 -20 65 0
10 -4 21 -9 26 -5 6 -18 39 -30 75 -12 36 -26 74 -30 85 -19 46 -53 139 -101
275 -29 80 -58 159 -66 177 -8 17 -14 38 -14 47 0 9 -6 17 -12 17 -45 4 -1722
3 -1729 -1z m896 -1740 c20 -58 38 -112 40 -120 2 -8 29 -89 60 -180 30 -91
57 -172 59 -180 3 -8 87 -260 187 -560 100 -300 185 -556 189 -570 l7 -25
-576 0 c-359 1 -576 5 -575 10 1 6 28 91 60 190 32 99 59 182 59 185 1 3 4 12
8 20 3 8 31 94 62 190 31 96 60 183 66 192 5 10 9 26 9 36 0 10 3 22 7 26 4 3
8 12 10 19 1 7 4 19 5 27 2 8 6 20 10 25 3 6 12 30 19 55 15 55 14 52 22 70 3
8 24 74 48 145 23 72 45 135 48 140 3 6 6 16 7 23 4 22 127 392 130 389 2 -1
19 -50 39 -107z"/>
<path d="M6360 8132 c-7 -3 -10 -914 -10 -2708 l0 -2704 33 -1 c17 -1 36 -1
40 0 4 1 19 1 32 1 38 0 78 1 100 4 11 1 35 -1 53 -5 17 -4 34 -3 37 1 3 4 21
4 40 0 19 -4 35 -4 35 0 0 4 16 4 35 0 19 -4 37 -4 40 0 3 4 20 5 37 1 18 -4
42 -6 53 -5 11 1 32 3 48 3 15 1 39 1 55 2 15 0 34 0 42 0 8 -1 26 -1 40 0 14
0 32 0 40 0 18 -2 58 0 85 3 11 1 35 -1 53 -5 17 -4 34 -3 37 1 3 4 21 4 40 0
19 -4 35 -4 35 0 0 4 16 4 35 0 19 -4 37 -4 40 0 3 4 20 5 37 1 18 -4 42 -6
53 -5 11 1 32 3 48 3 15 1 39 1 55 2 15 0 36 2 47 3 11 1 34 -1 51 -5 18 -3
38 -3 44 1 7 4 26 4 41 0 19 -6 31 -5 36 3 4 7 8 419 8 917 l0 905 420 1 c367
2 551 7 660 18 147 16 296 44 424 82 31 9 61 17 66 19 9 2 22 6 63 22 9 3 19
7 22 8 3 1 19 7 35 14 17 7 35 14 40 16 12 3 75 32 95 44 8 5 22 12 30 15 8 3
33 17 55 31 22 14 47 28 55 32 8 3 29 17 46 30 17 13 36 23 42 23 6 0 12 3 14
8 2 4 32 29 68 56 113 86 266 248 344 363 59 88 147 263 181 358 9 28 21 59
26 70 5 11 10 29 12 40 2 11 9 38 15 60 6 22 14 54 16 70 9 50 15 76 21 94 2
9 7 44 9 78 2 34 6 65 9 70 6 11 0 349 -7 398 -3 22 -8 55 -11 73 -12 94 -18
122 -32 177 -8 33 -16 65 -17 70 -1 6 -5 16 -9 23 -5 6 -6 12 -2 12 3 0 -1 14
-10 30 -9 17 -13 30 -11 30 6 0 -41 114 -84 205 -32 66 -128 223 -153 251 -7
7 -23 27 -36 44 -134 174 -388 358 -661 478 -119 52 -353 118 -480 136 -25 3
-56 8 -70 10 -35 6 -102 14 -185 22 -69 7 -2476 12 -2495 6z m1735 -1212 c11
-1 83 -1 160 -1 77 0 147 0 155 0 8 0 24 1 35 2 38 4 190 -12 249 -27 70 -18
176 -64 176 -76 0 -4 6 -8 14 -8 38 0 142 -148 180 -255 25 -71 29 -395 6
-422 -2 -2 -3 -6 -5 -10 -14 -52 -21 -71 -40 -108 -68 -135 -201 -221 -395
-256 -64 -11 -737 -20 -763 -9 -10 4 -12 130 -12 585 0 551 1 580 18 585 15 4
108 4 222 0z"/>
</g>
</svg>
