<svg width="50" height="50" viewBox="0 0 50 50" fill="none" xmlns="http://www.w3.org/2000/svg">
<path d="M47.4167 3H14.0833C13.5308 3 13.0009 3.21949 12.6102 3.61019C12.2195 4.00089 12 4.5308 12 5.08333V38.4167C12 38.9692 12.2195 39.4991 12.6102 39.8898C13.0009 40.2805 13.5308 40.5 14.0833 40.5H47.4167C47.9692 40.5 48.4991 40.2805 48.8898 39.8898C49.2805 39.4991 49.5 38.9692 49.5 38.4167V5.08333C49.5 4.5308 49.2805 4.00089 48.8898 3.61019C48.4991 3.21949 47.9692 3 47.4167 3ZM23.1229 34.9521H17.5562V17.0562H23.1229V34.9521ZM20.3396 14.6125C19.4843 14.6125 18.664 14.2727 18.0592 13.6679C17.4544 13.0631 17.1146 12.2428 17.1146 11.3875C17.1146 10.5322 17.4544 9.71189 18.0592 9.10708C18.664 8.50228 19.4843 8.1625 20.3396 8.1625C21.1949 8.1625 22.0152 8.50228 22.62 9.10708C23.2248 9.71189 23.5646 10.5322 23.5646 11.3875C23.5646 12.2428 23.2248 13.0631 22.62 13.6679C22.0152 14.2727 21.1949 14.6125 20.3396 14.6125ZM43.9542 34.9521H38.3937V26.25C38.3937 24.175 38.3562 21.5063 35.5021 21.5063C32.6062 21.5063 32.1667 23.7687 32.1667 26.1042V34.9542H26.6104V17.0583H31.9437V19.5042H32.0208C32.7604 18.0979 34.5771 16.6146 37.2792 16.6146C42.9125 16.6146 43.9521 20.3187 43.9521 25.1396V34.9521H43.9542Z" fill="white"/>
</svg>
