<svg width="50" height="50" viewBox="0 0 50 50" fill="none" xmlns="http://www.w3.org/2000/svg">
<path d="M40.9021 16.6604C40.9292 17.025 40.9292 17.3875 40.9292 17.75C40.9292 28.8438 32.4854 41.6271 17.0542 41.6271C12.3 41.6271 7.88335 40.25 4.16669 37.8583C4.84169 37.9354 5.49169 37.9625 6.19377 37.9625C9.97084 37.9716 13.6409 36.7086 16.6125 34.3771C14.8613 34.3454 13.1637 33.7676 11.7568 32.7245C10.3498 31.6813 9.30374 30.2248 8.7646 28.5583C9.28335 28.6354 9.80419 28.6875 10.35 28.6875C11.1021 28.6875 11.8584 28.5833 12.5604 28.4021C10.6599 28.0184 8.95101 26.9882 7.72423 25.4869C6.49744 23.9855 5.82855 22.1055 5.83127 20.1667V20.0625C6.95002 20.6854 8.24794 21.075 9.62294 21.1271C8.47104 20.3616 7.52652 19.323 6.87364 18.1037C6.22077 16.8845 5.87984 15.5226 5.88127 14.1396C5.88127 12.5813 6.29585 11.1521 7.02294 9.90626C9.13156 12.5001 11.7615 14.622 14.7424 16.1347C17.7233 17.6474 20.9887 18.5171 24.3271 18.6875C24.1979 18.0625 24.1188 17.4146 24.1188 16.7646C24.1182 15.6624 24.3349 14.571 24.7564 13.5526C25.178 12.5342 25.7961 11.6089 26.5754 10.8296C27.3548 10.0502 28.2801 9.43212 29.2984 9.01059C30.3168 8.58906 31.4083 8.37238 32.5104 8.37293C34.9271 8.37293 37.1084 9.38543 38.6417 11.0229C40.5204 10.6596 42.322 9.97381 43.9667 8.99584C43.3405 10.935 42.0287 12.5794 40.2771 13.6208C41.9433 13.4308 43.5718 12.9926 45.1084 12.3208C43.9607 13.994 42.5386 15.4611 40.9021 16.6604Z" fill="white"/>
</svg>
