<svg width="97" height="55" viewBox="0 0 97 55" fill="none" xmlns="http://www.w3.org/2000/svg">
<path d="M70.1253 40.4395C67.9211 40.4395 66.1281 38.645 66.1281 36.4408C66.1281 34.2366 67.9211 32.4436 70.1253 32.4436C72.3299 32.4436 74.1229 34.2362 74.1229 36.4408C74.1229 38.6454 72.3299 40.4395 70.1253 40.4395ZM25.9411 40.4395C23.7369 40.4395 21.9439 38.645 21.9439 36.4408C21.9439 34.2366 23.7365 32.4436 25.9411 32.4436C28.1453 32.4436 29.9383 34.2362 29.9383 36.4408C29.9383 38.6454 28.1456 40.4395 25.9411 40.4395ZM71.5591 16.3597L79.5483 2.52282C79.7683 2.14095 79.8277 1.68744 79.7137 1.2618C79.5996 0.83615 79.3213 0.473133 78.9399 0.252399C78.5581 0.032581 78.1046 -0.026816 77.679 0.0872354C77.2534 0.201287 76.8903 0.479474 76.6695 0.860793L68.5804 14.8726C62.394 12.0497 55.4466 10.477 48.0332 10.477C40.6198 10.477 33.6724 12.0497 27.4864 14.8726L19.3969 0.860793C19.1761 0.479474 18.8131 0.201287 18.3874 0.0872354C17.9618 -0.026816 17.5084 0.032581 17.1265 0.252399C16.7449 0.472927 16.4664 0.835946 16.3523 1.26168C16.2382 1.68741 16.2979 2.14102 16.5181 2.52282L24.5073 16.3597C10.7886 23.8211 1.40584 37.7095 0.0332031 54.1179H96.0332C94.6595 37.7099 85.2767 23.8211 71.5591 16.3593" fill="#3DDB85"/>
</svg>
