<svg width="236" height="121" viewBox="0 0 236 121" fill="none" xmlns="http://www.w3.org/2000/svg">
<path d="M24.096 47.48H12.096L10.272 53H0.384L12.72 19.16H23.568L35.856 53H25.92L24.096 47.48ZM21.744 40.28L18.096 29.336L14.496 40.28H21.744ZM48.3304 29.816C49.0664 28.536 50.1064 27.544 51.4504 26.84C52.7944 26.104 54.3784 25.736 56.2024 25.736C58.3464 25.736 60.2824 26.296 62.0104 27.416C63.7704 28.536 65.1464 30.136 66.1384 32.216C67.1624 34.296 67.6744 36.728 67.6744 39.512C67.6744 42.296 67.1624 44.744 66.1384 46.856C65.1464 48.936 63.7704 50.536 62.0104 51.656C60.2824 52.776 58.3464 53.336 56.2024 53.336C54.3784 53.336 52.7944 52.984 51.4504 52.28C50.1064 51.544 49.0664 50.536 48.3304 49.256V53H38.9224V17.48H48.3304V29.816ZM58.1224 39.512C58.1224 37.752 57.6424 36.392 56.6824 35.432C55.7544 34.44 54.6024 33.944 53.2264 33.944C51.8504 33.944 50.6824 34.44 49.7224 35.432C48.7944 36.424 48.3304 37.784 48.3304 39.512C48.3304 41.272 48.7944 42.648 49.7224 43.64C50.6824 44.632 51.8504 45.128 53.2264 45.128C54.6024 45.128 55.7544 44.632 56.6824 43.64C57.6424 42.616 58.1224 41.24 58.1224 39.512ZM76.1074 53.384C74.4434 53.384 73.0994 52.936 72.0754 52.04C71.0834 51.112 70.5874 49.944 70.5874 48.536C70.5874 47.128 71.0834 45.96 72.0754 45.032C73.0994 44.104 74.4434 43.64 76.1074 43.64C77.7394 43.64 79.0514 44.104 80.0434 45.032C81.0674 45.96 81.5794 47.128 81.5794 48.536C81.5794 49.912 81.0674 51.064 80.0434 51.992C79.0514 52.92 77.7394 53.384 76.1074 53.384Z" fill="#DFC194"/>
<path d="M24.096 47.48L25.0455 47.1663L24.8187 46.48H24.096V47.48ZM12.096 47.48V46.48H11.3733L11.1465 47.1663L12.096 47.48ZM10.272 53V54H10.9947L11.2215 53.3138L10.272 53ZM0.384 53L-0.555521 52.6575L-1.04491 54H0.384V53ZM12.72 19.16V18.16H12.0202L11.7805 18.8175L12.72 19.16ZM23.568 19.16L24.5079 18.8187L24.2688 18.16H23.568V19.16ZM35.856 53V54H37.283L36.796 52.6587L35.856 53ZM25.92 53L24.9705 53.3138L25.1973 54H25.92V53ZM21.744 40.28V41.28H23.1314L22.6927 39.9638L21.744 40.28ZM18.096 29.336L19.0447 29.0198L18.0897 26.1549L17.1461 29.0235L18.096 29.336ZM14.496 40.28L13.5461 39.9675L13.1143 41.28H14.496V40.28ZM24.096 46.48H12.096V48.48H24.096V46.48ZM11.1465 47.1663L9.3225 52.6862L11.2215 53.3138L13.0455 47.7938L11.1465 47.1663ZM10.272 52H0.384V54H10.272V52ZM1.32352 53.3425L13.6595 19.5025L11.7805 18.8175L-0.555521 52.6575L1.32352 53.3425ZM12.72 20.16H23.568V18.16H12.72V20.16ZM22.6281 19.5013L34.9161 53.3413L36.796 52.6587L24.5079 18.8187L22.6281 19.5013ZM35.856 52H25.92V54H35.856V52ZM26.8695 52.6862L25.0455 47.1663L23.1465 47.7938L24.9705 53.3138L26.8695 52.6862ZM22.6927 39.9638L19.0447 29.0198L17.1473 29.6522L20.7953 40.5962L22.6927 39.9638ZM17.1461 29.0235L13.5461 39.9675L15.4459 40.5925L19.0459 29.6485L17.1461 29.0235ZM14.496 41.28H21.744V39.28H14.496V41.28ZM48.3304 29.816H47.3304V33.5613L49.1973 30.3145L48.3304 29.816ZM51.4504 26.84L51.9144 27.7258L51.9226 27.7215L51.9307 27.7171L51.4504 26.84ZM62.0104 27.416L61.4665 28.2552L61.4735 28.2597L62.0104 27.416ZM66.1384 32.216L65.2357 32.6465L65.2412 32.6577L66.1384 32.216ZM66.1384 46.856L65.2385 46.4197L65.2358 46.4255L66.1384 46.856ZM62.0104 51.656L61.4735 50.8123L61.4665 50.8168L62.0104 51.656ZM51.4504 52.28L50.9701 53.1571L50.9782 53.1615L50.9864 53.1658L51.4504 52.28ZM48.3304 49.256L49.1973 48.7575L47.3304 45.5107V49.256H48.3304ZM48.3304 53V54H49.3304V53H48.3304ZM38.9224 53H37.9224V54H38.9224V53ZM38.9224 17.48V16.48H37.9224V17.48H38.9224ZM48.3304 17.48H49.3304V16.48H48.3304V17.48ZM56.6824 35.432L55.9521 36.1152L55.9635 36.1273L55.9753 36.1391L56.6824 35.432ZM49.7224 35.432L49.0038 34.7366L48.9979 34.7427L48.9921 34.7488L49.7224 35.432ZM49.7224 43.64L48.9921 44.3232L48.9979 44.3293L49.0038 44.3354L49.7224 43.64ZM56.6824 43.64L55.9528 42.9561L55.9521 42.9568L56.6824 43.64ZM49.1973 30.3145C49.8358 29.204 50.7339 28.3442 51.9144 27.7258L50.9864 25.9542C49.4789 26.7438 48.2969 27.868 47.4635 29.3175L49.1973 30.3145ZM51.9307 27.7171C53.1018 27.0758 54.5143 26.736 56.2024 26.736V24.736C54.2424 24.736 52.487 25.1322 50.9701 25.9629L51.9307 27.7171ZM56.2024 26.736C58.1617 26.736 59.9073 27.2446 61.4665 28.2551L62.5543 26.5768C60.6574 25.3474 58.531 24.736 56.2024 24.736V26.736ZM61.4735 28.2597C63.059 29.2686 64.3158 30.7175 65.2358 32.6465L67.041 31.7855C65.977 29.5545 64.4818 27.8034 62.5473 26.5723L61.4735 28.2597ZM65.2412 32.6577C66.1853 34.5754 66.6744 36.8508 66.6744 39.512H68.6744C68.6744 36.6052 68.1395 34.0166 67.0355 31.7743L65.2412 32.6577ZM66.6744 39.512C66.6744 42.1728 66.1855 44.4668 65.2386 46.4197L67.0382 47.2923C68.1393 45.0212 68.6744 42.4192 68.6744 39.512H66.6744ZM65.2358 46.4255C64.3158 48.3545 63.059 49.8034 61.4735 50.8123L62.5472 52.4997C64.4818 51.2686 65.977 49.5175 67.041 47.2865L65.2358 46.4255ZM61.4665 50.8168C59.9073 51.8274 58.1617 52.336 56.2024 52.336V54.336C58.531 54.336 60.6574 53.7246 62.5543 52.4952L61.4665 50.8168ZM56.2024 52.336C54.5076 52.336 53.089 52.0094 51.9144 51.3942L50.9864 53.1658C52.4997 53.9586 54.2492 54.336 56.2024 54.336V52.336ZM51.9307 51.4029C50.7415 50.7517 49.8381 49.872 49.1973 48.7575L47.4635 49.7545C48.2947 51.2 49.4712 52.3363 50.9701 53.1571L51.9307 51.4029ZM47.3304 49.256V53H49.3304V49.256H47.3304ZM48.3304 52H38.9224V54H48.3304V52ZM39.9224 53V17.48H37.9224V53H39.9224ZM38.9224 18.48H48.3304V16.48H38.9224V18.48ZM47.3304 17.48V29.816H49.3304V17.48H47.3304ZM59.1224 39.512C59.1224 37.5688 58.588 35.9234 57.3895 34.7249L55.9753 36.1391C56.6968 36.8606 57.1224 37.9352 57.1224 39.512H59.1224ZM57.4126 34.7488C56.2928 33.5518 54.8751 32.944 53.2264 32.944V34.944C54.3297 34.944 55.216 35.3282 55.9521 36.1152L57.4126 34.7488ZM53.2264 32.944C51.5785 32.944 50.1515 33.5506 49.0038 34.7366L50.441 36.1274C51.2133 35.3294 52.1223 34.944 53.2264 34.944V32.944ZM48.9921 34.7488C47.8473 35.9726 47.3304 37.6021 47.3304 39.512H49.3304C49.3304 37.9659 49.7414 36.8754 50.4526 36.1152L48.9921 34.7488ZM47.3304 39.512C47.3304 41.4482 47.8443 43.0962 48.9921 44.3232L50.4526 42.9568C49.7445 42.1998 49.3304 41.0958 49.3304 39.512H47.3304ZM49.0038 44.3354C50.1515 45.5214 51.5785 46.128 53.2264 46.128V44.128C52.1223 44.128 51.2133 43.7426 50.441 42.9446L49.0038 44.3354ZM53.2264 46.128C54.8751 46.128 56.2928 45.5202 57.4126 44.3232L55.9521 42.9568C55.216 43.7438 54.3297 44.128 53.2264 44.128V46.128ZM57.4119 44.3239C58.5837 43.074 59.1224 41.4323 59.1224 39.512H57.1224C57.1224 41.0477 56.701 42.158 55.9528 42.9561L57.4119 44.3239ZM72.0754 52.04L71.3922 52.7703L71.4044 52.7816L71.4169 52.7926L72.0754 52.04ZM72.0754 45.032L71.4039 44.291L71.398 44.2963L71.3922 44.3017L72.0754 45.032ZM80.0434 45.032L79.3602 45.7623L79.366 45.7677L79.3719 45.773L80.0434 45.032ZM80.0434 51.992L79.3719 51.251L79.366 51.2563L79.3602 51.2617L80.0434 51.992ZM76.1074 52.384C74.6293 52.384 73.5372 51.9904 72.7339 51.2874L71.4169 52.7926C72.6615 53.8816 74.2575 54.384 76.1074 54.384V52.384ZM72.7585 51.3097C71.9768 50.5785 71.5874 49.6786 71.5874 48.536H69.5874C69.5874 50.2094 70.1899 51.6455 71.3922 52.7703L72.7585 51.3097ZM71.5874 48.536C71.5874 47.3934 71.9768 46.4935 72.7585 45.7623L71.3922 44.3017C70.1899 45.4265 69.5874 46.8626 69.5874 48.536H71.5874ZM72.7469 45.773C73.5509 45.0443 74.6382 44.64 76.1074 44.64V42.64C74.2485 42.64 72.6478 43.1637 71.4039 44.291L72.7469 45.773ZM76.1074 44.64C77.5398 44.64 78.5895 45.0413 79.3602 45.7623L80.7265 44.3017C79.5132 43.1667 77.9389 42.64 76.1074 42.64V44.64ZM79.3719 45.773C80.1822 46.5074 80.5794 47.4042 80.5794 48.536H82.5794C82.5794 46.8518 81.9525 45.4126 80.7149 44.291L79.3719 45.773ZM80.5794 48.536C80.5794 49.6283 80.1877 50.5116 79.3719 51.251L80.7149 52.733C81.947 51.6164 82.5794 50.1957 82.5794 48.536H80.5794ZM79.3602 51.2617C78.5895 51.9827 77.5398 52.384 76.1074 52.384V54.384C77.9389 54.384 79.5132 53.8573 80.7265 52.7223L79.3602 51.2617Z" fill="#8C8C8C"/>
<path d="M71.424 79.44C71.424 81.488 70.944 83.36 69.984 85.056C69.056 86.72 67.632 88.064 65.712 89.088C63.824 90.08 61.504 90.576 58.752 90.576H54.096V102H44.688V68.16H58.752C61.472 68.16 63.776 68.64 65.664 69.6C67.584 70.56 69.024 71.888 69.984 73.584C70.944 75.28 71.424 77.232 71.424 79.44ZM57.84 83.088C60.496 83.088 61.824 81.872 61.824 79.44C61.824 76.976 60.496 75.744 57.84 75.744H54.096V83.088H57.84ZM84.6116 79.824C85.6676 78.288 86.9476 77.072 88.4516 76.176C89.9556 75.28 91.5716 74.832 93.2996 74.832V84.864H90.6596C88.6116 84.864 87.0916 85.264 86.0996 86.064C85.1076 86.864 84.6116 88.256 84.6116 90.24V102H75.2036V75.072H84.6116V79.824ZM109.2 102.336C106.512 102.336 104.096 101.776 101.952 100.656C99.8404 99.536 98.1764 97.936 96.9604 95.856C95.7444 93.776 95.1364 91.328 95.1364 88.512C95.1364 85.728 95.7444 83.296 96.9604 81.216C98.2084 79.136 99.8884 77.536 102 76.416C104.144 75.296 106.56 74.736 109.248 74.736C111.936 74.736 114.336 75.296 116.448 76.416C118.592 77.536 120.272 79.136 121.488 81.216C122.736 83.296 123.36 85.728 123.36 88.512C123.36 91.296 122.736 93.744 121.488 95.856C120.272 97.936 118.592 99.536 116.448 100.656C114.304 101.776 111.888 102.336 109.2 102.336ZM109.2 94.176C110.512 94.176 111.6 93.696 112.464 92.736C113.36 91.744 113.808 90.336 113.808 88.512C113.808 86.688 113.36 85.296 112.464 84.336C111.6 83.376 110.528 82.896 109.248 82.896C107.968 82.896 106.896 83.376 106.032 84.336C105.168 85.296 104.736 86.688 104.736 88.512C104.736 90.368 105.152 91.776 105.984 92.736C106.816 93.696 107.888 94.176 109.2 94.176ZM138.66 102.336C136.228 102.336 134.052 101.936 132.132 101.136C130.244 100.304 128.74 99.184 127.62 97.776C126.532 96.336 125.924 94.72 125.796 92.928H134.916C135.044 93.792 135.444 94.464 136.116 94.944C136.788 95.424 137.62 95.664 138.612 95.664C139.38 95.664 139.988 95.504 140.436 95.184C140.884 94.864 141.108 94.448 141.108 93.936C141.108 93.264 140.74 92.768 140.004 92.448C139.268 92.128 138.052 91.776 136.356 91.392C134.436 91.008 132.836 90.576 131.556 90.096C130.276 89.616 129.156 88.832 128.196 87.744C127.268 86.656 126.804 85.184 126.804 83.328C126.804 81.728 127.236 80.288 128.1 79.008C128.964 77.696 130.228 76.656 131.892 75.888C133.588 75.12 135.62 74.736 137.988 74.736C141.508 74.736 144.276 75.6 146.292 77.328C148.308 79.056 149.476 81.328 149.796 84.144H141.3C141.14 83.28 140.756 82.624 140.148 82.176C139.572 81.696 138.788 81.456 137.796 81.456C137.028 81.456 136.436 81.6 136.02 81.888C135.636 82.176 135.444 82.576 135.444 83.088C135.444 83.728 135.812 84.224 136.548 84.576C137.284 84.896 138.468 85.232 140.1 85.584C142.052 86 143.668 86.464 144.948 86.976C146.26 87.488 147.396 88.32 148.356 89.472C149.348 90.592 149.844 92.128 149.844 94.08C149.844 95.648 149.38 97.056 148.452 98.304C147.556 99.552 146.26 100.544 144.564 101.28C142.9 101.984 140.932 102.336 138.66 102.336ZM163.877 78.816C164.613 77.568 165.653 76.576 166.997 75.84C168.341 75.104 169.925 74.736 171.749 74.736C173.893 74.736 175.829 75.296 177.557 76.416C179.317 77.536 180.693 79.136 181.685 81.216C182.709 83.296 183.221 85.728 183.221 88.512C183.221 91.296 182.709 93.744 181.685 95.856C180.693 97.936 179.317 99.536 177.557 100.656C175.829 101.776 173.893 102.336 171.749 102.336C169.925 102.336 168.341 101.968 166.997 101.232C165.685 100.496 164.645 99.504 163.877 98.256V114.864H154.469V75.072H163.877V78.816ZM173.669 88.512C173.669 86.752 173.189 85.392 172.229 84.432C171.301 83.44 170.149 82.944 168.773 82.944C167.397 82.944 166.229 83.44 165.269 84.432C164.341 85.424 163.877 86.784 163.877 88.512C163.877 90.272 164.341 91.648 165.269 92.64C166.229 93.632 167.397 94.128 168.773 94.128C170.149 94.128 171.301 93.632 172.229 92.64C173.189 91.616 173.669 90.24 173.669 88.512ZM212.822 88.224C212.822 88.96 212.774 89.696 212.678 90.432H194.87C194.966 91.904 195.366 93.008 196.07 93.744C196.806 94.448 197.734 94.8 198.854 94.8C200.422 94.8 201.542 94.096 202.214 92.688H212.246C211.83 94.544 211.014 96.208 209.798 97.68C208.614 99.12 207.11 100.256 205.286 101.088C203.462 101.92 201.446 102.336 199.238 102.336C196.582 102.336 194.214 101.776 192.134 100.656C190.086 99.536 188.47 97.936 187.286 95.856C186.134 93.776 185.558 91.328 185.558 88.512C185.558 85.696 186.134 83.264 187.286 81.216C188.438 79.136 190.038 77.536 192.086 76.416C194.166 75.296 196.55 74.736 199.238 74.736C201.894 74.736 204.246 75.28 206.294 76.368C208.342 77.456 209.942 79.024 211.094 81.072C212.246 83.088 212.822 85.472 212.822 88.224ZM203.222 85.872C203.222 84.72 202.838 83.824 202.07 83.184C201.302 82.512 200.342 82.176 199.19 82.176C198.038 82.176 197.094 82.496 196.358 83.136C195.622 83.744 195.142 84.656 194.918 85.872H203.222ZM226.08 79.824C227.136 78.288 228.416 77.072 229.92 76.176C231.424 75.28 233.04 74.832 234.768 74.832V84.864H232.128C230.08 84.864 228.56 85.264 227.568 86.064C226.576 86.864 226.08 88.256 226.08 90.24V102H216.672V75.072H226.08V79.824Z" fill="white"/>
<path d="M69.984 85.056L69.1137 84.5634L69.1106 84.5689L69.984 85.056ZM65.712 89.088L66.1771 89.9733L66.1826 89.9704L65.712 89.088ZM54.096 90.576V89.576H53.096V90.576H54.096ZM54.096 102V103H55.096V102H54.096ZM44.688 102H43.688V103H44.688V102ZM44.688 68.16V67.16H43.688V68.16H44.688ZM65.664 69.6L65.2107 70.4914L65.2168 70.4944L65.664 69.6ZM69.984 73.584L69.1137 74.0766V74.0766L69.984 73.584ZM54.096 75.744V74.744H53.096V75.744H54.096ZM54.096 83.088H53.096V84.088H54.096V83.088ZM70.424 79.44C70.424 81.3245 69.9843 83.0254 69.1137 84.5634L70.8543 85.5486C71.9037 83.6946 72.424 81.6515 72.424 79.44H70.424ZM69.1106 84.5689C68.2889 86.0423 67.0167 87.2588 65.2414 88.2056L66.1826 89.9704C68.2473 88.8692 69.8231 87.3977 70.8574 85.5431L69.1106 84.5689ZM65.2469 88.2028C63.5379 89.1007 61.3876 89.576 58.752 89.576V91.576C61.6204 91.576 64.1101 91.0593 66.1771 89.9732L65.2469 88.2028ZM58.752 89.576H54.096V91.576H58.752V89.576ZM53.096 90.576V102H55.096V90.576H53.096ZM54.096 101H44.688V103H54.096V101ZM45.688 102V68.16H43.688V102H45.688ZM44.688 69.16H58.752V67.16H44.688V69.16ZM58.752 69.16C61.3579 69.16 63.4973 69.6202 65.2108 70.4914L66.1172 68.7086C64.0547 67.6598 61.5861 67.16 58.752 67.16V69.16ZM65.2168 70.4944C66.9778 71.3749 68.2615 72.571 69.1137 74.0766L70.8543 73.0914C69.7865 71.2049 68.1902 69.7451 66.1112 68.7056L65.2168 70.4944ZM69.1137 74.0766C69.9779 75.6033 70.424 77.3813 70.424 79.44H72.424C72.424 77.0827 71.9101 74.9567 70.8543 73.0914L69.1137 74.0766ZM57.84 84.088C59.3014 84.088 60.584 83.7553 61.5033 82.9135C62.4394 82.0564 62.824 80.8339 62.824 79.44H60.824C60.824 80.4781 60.5446 81.0796 60.1527 81.4385C59.744 81.8127 59.0346 82.088 57.84 82.088V84.088ZM62.824 79.44C62.824 78.0338 62.4415 76.8008 61.5081 75.9349C60.5888 75.0821 59.3043 74.744 57.84 74.744V76.744C59.0317 76.744 59.7392 77.0219 60.1479 77.4011C60.5425 77.7671 60.824 78.3822 60.824 79.44H62.824ZM57.84 74.744H54.096V76.744H57.84V74.744ZM53.096 75.744V83.088H55.096V75.744H53.096ZM54.096 84.088H57.84V82.088H54.096V84.088ZM84.6116 79.824H83.6116V83.0437L85.4357 80.3905L84.6116 79.824ZM93.2996 74.832H94.2996V73.832H93.2996V74.832ZM93.2996 84.864V85.864H94.2996V84.864H93.2996ZM86.0996 86.064L86.7274 86.8424L86.0996 86.064ZM84.6116 102V103H85.6116V102H84.6116ZM75.2036 102H74.2036V103H75.2036V102ZM75.2036 75.072V74.072H74.2036V75.072H75.2036ZM84.6116 75.072H85.6116V74.072H84.6116V75.072ZM85.4357 80.3905C86.4153 78.9656 87.5913 77.8525 88.9634 77.0351L87.9398 75.3169C86.3039 76.2915 84.9199 77.6104 83.7876 79.2575L85.4357 80.3905ZM88.9634 77.0351C90.3148 76.23 91.7543 75.832 93.2996 75.832V73.832C91.389 73.832 89.5965 74.33 87.9398 75.3169L88.9634 77.0351ZM92.2996 74.832V84.864H94.2996V74.832H92.2996ZM93.2996 83.864H90.6596V85.864H93.2996V83.864ZM90.6596 83.864C88.5125 83.864 86.7214 84.2779 85.4719 85.2856L86.7274 86.8424C87.4619 86.2501 88.7108 85.864 90.6596 85.864V83.864ZM85.4719 85.2856C84.1382 86.3611 83.6116 88.1233 83.6116 90.24H85.6116C85.6116 88.3887 86.077 87.3669 86.7274 86.8424L85.4719 85.2856ZM83.6116 90.24V102H85.6116V90.24H83.6116ZM84.6116 101H75.2036V103H84.6116V101ZM76.2036 102V75.072H74.2036V102H76.2036ZM75.2036 76.072H84.6116V74.072H75.2036V76.072ZM83.6116 75.072V79.824H85.6116V75.072H83.6116ZM101.952 100.656L101.484 101.539L101.489 101.542L101.952 100.656ZM96.9604 95.856L97.8237 95.3513L96.9604 95.856ZM96.9604 81.216L96.1028 80.7015L96.0971 80.7113L96.9604 81.216ZM102 76.416L101.537 75.5296L101.532 75.5325L102 76.416ZM116.448 76.416L115.98 77.2995L115.985 77.3023L116.448 76.416ZM121.488 81.216L120.625 81.7207L120.631 81.7305L121.488 81.216ZM121.488 95.856L120.627 95.3473L120.625 95.3513L121.488 95.856ZM116.448 100.656L115.985 99.7696L116.448 100.656ZM112.464 92.736L111.722 92.0657L111.721 92.067L112.464 92.736ZM112.464 84.336L111.721 85.005L111.727 85.0117L111.733 85.0183L112.464 84.336ZM105.984 92.736L105.229 93.3909L105.984 92.736ZM109.2 101.336C106.655 101.336 104.401 100.807 102.415 99.7696L101.489 101.542C103.792 102.745 106.369 103.336 109.2 103.336V101.336ZM102.421 99.7725C100.474 98.7404 98.9466 97.2721 97.8237 95.3513L96.0971 96.3607C97.4061 98.5999 99.2063 100.332 101.484 101.539L102.421 99.7725ZM97.8237 95.3513C96.7113 93.4486 96.1364 91.1809 96.1364 88.512H94.1364C94.1364 91.4751 94.7774 94.1034 96.0971 96.3607L97.8237 95.3513ZM96.1364 88.512C96.1364 85.8774 96.7103 83.6251 97.8237 81.7207L96.0971 80.7113C94.7784 82.9669 94.1364 85.5786 94.1364 88.512H96.1364ZM97.8179 81.7305C98.9737 79.8042 100.52 78.3329 102.469 77.2995L101.532 75.5325C99.2566 76.7391 97.4431 78.4678 96.1029 80.7015L97.8179 81.7305ZM102.463 77.3023C104.449 76.265 106.703 75.736 109.248 75.736V73.736C106.417 73.736 103.84 74.327 101.537 75.5296L102.463 77.3023ZM109.248 75.736C111.794 75.736 114.029 76.2651 115.98 77.2995L116.917 75.5325C114.643 74.3269 112.079 73.736 109.248 73.736V75.736ZM115.985 77.3023C117.963 78.3357 119.504 79.8037 120.625 81.7207L122.352 80.7113C121.04 78.4683 119.221 76.7363 116.911 75.5296L115.985 77.3023ZM120.631 81.7305C121.773 83.6333 122.36 85.882 122.36 88.512H124.36C124.36 85.574 123.7 82.9587 122.346 80.7015L120.631 81.7305ZM122.36 88.512C122.36 91.1417 121.773 93.4092 120.627 95.3473L122.349 96.3647C123.7 94.0788 124.36 91.4503 124.36 88.512H122.36ZM120.625 95.3513C119.504 97.2683 117.963 98.7363 115.985 99.7696L116.911 101.542C119.221 100.336 121.04 98.6037 122.352 96.3607L120.625 95.3513ZM115.985 99.7696C114 100.807 111.745 101.336 109.2 101.336V103.336C112.031 103.336 114.609 102.745 116.911 101.542L115.985 99.7696ZM109.2 95.176C110.791 95.176 112.151 94.5795 113.208 93.405L111.721 92.067C111.05 92.8125 110.234 93.176 109.2 93.176V95.176ZM113.206 93.4063C114.321 92.1726 114.808 90.4926 114.808 88.512H112.808C112.808 90.1794 112.4 91.3154 111.722 92.0657L113.206 93.4063ZM114.808 88.512C114.808 86.534 114.322 84.8605 113.195 83.6537L111.733 85.0183C112.399 85.7315 112.808 86.842 112.808 88.512H114.808ZM113.208 83.667C112.156 82.4985 110.815 81.896 109.248 81.896V83.896C110.242 83.896 111.045 84.2535 111.721 85.005L113.208 83.667ZM109.248 81.896C107.682 81.896 106.341 82.4985 105.289 83.667L106.776 85.005C107.452 84.2535 108.255 83.896 109.248 83.896V81.896ZM105.289 83.667C104.203 84.8742 103.736 86.5424 103.736 88.512H105.736C105.736 86.8336 106.134 85.7178 106.776 85.005L105.289 83.667ZM103.736 88.512C103.736 90.5001 104.18 92.1812 105.229 93.3909L106.74 92.0811C106.125 91.3708 105.736 90.2359 105.736 88.512H103.736ZM105.229 93.3909C106.258 94.5782 107.609 95.176 109.2 95.176V93.176C108.168 93.176 107.375 92.8138 106.74 92.0811L105.229 93.3909ZM132.132 101.136L131.729 102.051L131.738 102.055L131.747 102.059L132.132 101.136ZM127.62 97.776L126.822 98.3788L126.83 98.3888L126.837 98.3985L127.62 97.776ZM125.796 92.928V91.928H124.722L124.799 92.9992L125.796 92.928ZM134.916 92.928L135.905 92.7815L135.779 91.928H134.916V92.928ZM140.004 92.448L140.403 91.5309L140.004 92.448ZM136.356 91.392L136.577 90.4167L136.565 90.4139L136.552 90.4114L136.356 91.392ZM131.556 90.096L131.205 91.0323L131.556 90.096ZM128.196 87.744L127.435 88.3929L127.441 88.3993L127.446 88.4056L128.196 87.744ZM128.1 79.008L128.929 79.5675L128.935 79.558L128.1 79.008ZM131.892 75.888L131.479 74.977L131.473 74.98L131.892 75.888ZM146.292 77.328L145.641 78.0873L146.292 77.328ZM149.796 84.144V85.144H150.916L150.79 84.0311L149.796 84.144ZM141.3 84.144L140.317 84.3261L140.468 85.144H141.3V84.144ZM140.148 82.176L139.508 82.9442L139.531 82.9633L139.555 82.9811L140.148 82.176ZM136.02 81.888L135.451 81.0658L135.435 81.0766L135.42 81.088L136.02 81.888ZM136.548 84.576L136.117 85.4781L136.133 85.4859L136.149 85.4931L136.548 84.576ZM140.1 85.584L139.889 86.5615L139.892 86.562L140.1 85.584ZM144.948 86.976L144.577 87.9045L144.584 87.9076L144.948 86.976ZM148.356 89.472L147.588 90.1122L147.597 90.1238L147.607 90.135L148.356 89.472ZM148.452 98.304L147.65 97.7073L147.645 97.714L147.64 97.7208L148.452 98.304ZM144.564 101.28L144.954 102.201L144.962 102.197L144.564 101.28ZM138.66 101.336C136.338 101.336 134.296 100.954 132.517 100.213L131.747 102.059C133.808 102.918 136.118 103.336 138.66 103.336V101.336ZM132.535 100.221C130.774 99.4446 129.408 98.4172 128.403 97.1535L126.837 98.3985C128.072 99.9508 129.714 101.163 131.729 102.051L132.535 100.221ZM128.418 97.1732C127.446 95.8866 126.908 94.4551 126.793 92.8568L124.799 92.9992C124.94 94.9849 125.618 96.7854 126.822 98.3788L128.418 97.1732ZM125.796 93.928H134.916V91.928H125.796V93.928ZM133.927 93.0745C134.092 94.1898 134.628 95.1101 135.535 95.7577L136.697 94.1303C136.26 93.8179 135.996 93.3942 135.905 92.7815L133.927 93.0745ZM135.535 95.7577C136.408 96.3816 137.454 96.664 138.612 96.664V94.664C137.786 94.664 137.168 94.4664 136.697 94.1303L135.535 95.7577ZM138.612 96.664C139.508 96.664 140.344 96.4783 141.017 95.9977L139.855 94.3703C139.632 94.5297 139.252 94.664 138.612 94.664V96.664ZM141.017 95.9977C141.705 95.5066 142.108 94.7984 142.108 93.936H140.108C140.108 94.0976 140.063 94.2214 139.855 94.3703L141.017 95.9977ZM142.108 93.936C142.108 93.4054 141.958 92.8999 141.635 92.4642C141.32 92.0395 140.884 91.7404 140.403 91.5309L139.605 93.3651C139.86 93.4756 139.976 93.5845 140.029 93.6558C140.074 93.7161 140.108 93.7946 140.108 93.936H142.108ZM140.403 91.5309C139.575 91.1709 138.28 90.8024 136.577 90.4167L136.135 92.3673C137.824 92.7496 138.961 93.0851 139.605 93.3651L140.403 91.5309ZM136.552 90.4114C134.664 90.0339 133.12 89.6146 131.907 89.1597L131.205 91.0323C132.552 91.5374 134.208 91.9821 136.16 92.3726L136.552 90.4114ZM131.907 89.1597C130.79 88.7407 129.804 88.0553 128.946 87.0824L127.446 88.4056C128.508 89.6087 129.762 90.4913 131.205 91.0323L131.907 89.1597ZM128.957 87.0951C128.224 86.2363 127.804 85.0183 127.804 83.328H125.804C125.804 85.3497 126.312 87.0757 127.435 88.3929L128.957 87.0951ZM127.804 83.328C127.804 81.9198 128.181 80.676 128.929 79.5675L127.271 78.4485C126.291 79.9 125.804 81.5362 125.804 83.328H127.804ZM128.935 79.558C129.68 78.4262 130.788 77.499 132.311 76.796L131.473 74.98C129.668 75.813 128.248 76.9658 127.265 78.458L128.935 79.558ZM132.305 76.799C133.841 76.1033 135.725 75.736 137.988 75.736V73.736C135.515 73.736 133.335 74.1367 131.479 74.977L132.305 76.799ZM137.988 75.736C141.348 75.736 143.858 76.5591 145.641 78.0873L146.943 76.5687C144.694 74.6409 141.668 73.736 137.988 73.736V75.736ZM145.641 78.0873C147.452 79.6391 148.509 81.6734 148.802 84.2569L150.79 84.0311C150.443 80.9826 149.164 78.4729 146.943 76.5687L145.641 78.0873ZM149.796 83.144H141.3V85.144H149.796V83.144ZM142.283 83.9619C142.085 82.8919 141.587 81.994 140.741 81.3709L139.555 82.9811C139.925 83.254 140.195 83.6681 140.317 84.3261L142.283 83.9619ZM140.788 81.4078C139.981 80.7355 138.946 80.456 137.796 80.456V82.456C138.63 82.456 139.162 82.6565 139.508 82.9442L140.788 81.4078ZM137.796 80.456C136.923 80.456 136.1 80.6163 135.451 81.0658L136.589 82.7102C136.772 82.5837 137.133 82.456 137.796 82.456V80.456ZM135.42 81.088C134.765 81.579 134.444 82.2857 134.444 83.088H136.444C136.444 82.8663 136.507 82.773 136.62 82.688L135.42 81.088ZM134.444 83.088C134.444 84.2255 135.148 85.0147 136.117 85.4781L136.979 83.6739C136.476 83.4333 136.444 83.2305 136.444 83.088H134.444ZM136.149 85.4931C136.981 85.8547 138.246 86.2072 139.889 86.5615L140.311 84.6065C138.69 84.2568 137.587 83.9373 136.947 83.6589L136.149 85.4931ZM139.892 86.562C141.81 86.9709 143.367 87.4207 144.577 87.9045L145.319 86.0475C143.969 85.5073 142.294 85.0291 140.308 84.606L139.892 86.562ZM144.584 87.9076C145.729 88.3542 146.729 89.0813 147.588 90.1122L149.124 88.8318C148.063 87.5587 146.791 86.6218 145.312 86.0444L144.584 87.9076ZM147.607 90.135C148.393 91.0222 148.844 92.2962 148.844 94.08H150.844C150.844 91.9598 150.303 90.1618 149.105 88.809L147.607 90.135ZM148.844 94.08C148.844 95.4349 148.448 96.6333 147.65 97.7073L149.254 98.9007C150.312 97.4787 150.844 95.8611 150.844 94.08H148.844ZM147.64 97.7208C146.869 98.7947 145.73 99.6839 144.166 100.363L144.962 102.197C146.79 101.404 148.243 100.309 149.264 98.8872L147.64 97.7208ZM144.174 100.359C142.661 100.999 140.831 101.336 138.66 101.336V103.336C141.033 103.336 143.139 102.969 144.954 102.201L144.174 100.359ZM163.877 78.816H162.877V82.4802L164.739 79.324L163.877 78.816ZM166.997 75.84L166.517 74.9629L166.997 75.84ZM177.557 76.416L177.013 77.2552L177.02 77.2597L177.557 76.416ZM181.685 81.216L180.783 81.6465L180.788 81.6577L181.685 81.216ZM181.685 95.856L180.785 95.4197L180.783 95.4255L181.685 95.856ZM177.557 100.656L177.02 99.8123L177.013 99.8168L177.557 100.656ZM166.997 101.232L166.508 102.104L166.517 102.109L166.997 101.232ZM163.877 98.256L164.729 97.7319L162.877 94.723V98.256H163.877ZM163.877 114.864V115.864H164.877V114.864H163.877ZM154.469 114.864H153.469V115.864H154.469V114.864ZM154.469 75.072V74.072H153.469V75.072H154.469ZM163.877 75.072H164.877V74.072H163.877V75.072ZM172.229 84.432L171.499 85.1152L171.51 85.1273L171.522 85.1391L172.229 84.432ZM165.269 84.432L164.551 83.7366L164.545 83.7427L164.539 83.7488L165.269 84.432ZM165.269 92.64L164.539 93.3232L164.545 93.3293L164.551 93.3354L165.269 92.64ZM172.229 92.64L171.5 91.9561L171.499 91.9568L172.229 92.64ZM164.739 79.324C165.378 78.2401 166.282 77.3718 167.478 76.7171L166.517 74.9629C165.024 75.7802 163.849 76.8959 163.016 78.308L164.739 79.324ZM167.478 76.7171C168.649 76.0758 170.061 75.736 171.749 75.736V73.736C169.789 73.736 168.034 74.1322 166.517 74.9629L167.478 76.7171ZM171.749 75.736C173.709 75.736 175.454 76.2446 177.013 77.2551L178.101 75.5768C176.204 74.3474 174.078 73.736 171.749 73.736V75.736ZM177.02 77.2597C178.606 78.2686 179.863 79.7175 180.783 81.6465L182.588 80.7855C181.524 78.5545 180.029 76.8034 178.094 75.5723L177.02 77.2597ZM180.788 81.6577C181.732 83.5754 182.221 85.8508 182.221 88.512H184.221C184.221 85.6052 183.686 83.0166 182.582 80.7743L180.788 81.6577ZM182.221 88.512C182.221 91.1728 181.732 93.4668 180.785 95.4197L182.585 96.2923C183.686 94.0212 184.221 91.4192 184.221 88.512H182.221ZM180.783 95.4255C179.863 97.3545 178.606 98.8034 177.02 99.8123L178.094 101.5C180.029 100.269 181.524 98.5175 182.588 96.2865L180.783 95.4255ZM177.013 99.8168C175.454 100.827 173.709 101.336 171.749 101.336V103.336C174.078 103.336 176.204 102.725 178.101 101.495L177.013 99.8168ZM171.749 101.336C170.061 101.336 168.649 100.996 167.478 100.355L166.517 102.109C168.034 102.94 169.789 103.336 171.749 103.336V101.336ZM167.487 100.36C166.319 99.7048 165.405 98.831 164.729 97.7319L163.026 98.7801C163.885 100.177 165.052 101.287 166.508 102.104L167.487 100.36ZM162.877 98.256V114.864H164.877V98.256H162.877ZM163.877 113.864H154.469V115.864H163.877V113.864ZM155.469 114.864V75.072H153.469V114.864H155.469ZM154.469 76.072H163.877V74.072H154.469V76.072ZM162.877 75.072V78.816H164.877V75.072H162.877ZM174.669 88.512C174.669 86.5688 174.135 84.9234 172.936 83.7249L171.522 85.1391C172.244 85.8606 172.669 86.9352 172.669 88.512H174.669ZM172.96 83.7488C171.84 82.5518 170.422 81.944 168.773 81.944V83.944C169.877 83.944 170.763 84.3282 171.499 85.1152L172.96 83.7488ZM168.773 81.944C167.125 81.944 165.698 82.5506 164.551 83.7366L165.988 85.1274C166.76 84.3294 167.669 83.944 168.773 83.944V81.944ZM164.539 83.7488C163.394 84.9726 162.877 86.6021 162.877 88.512H164.877C164.877 86.9659 165.288 85.8754 166 85.1152L164.539 83.7488ZM162.877 88.512C162.877 90.4482 163.391 92.0962 164.539 93.3232L166 91.9568C165.291 91.1998 164.877 90.0958 164.877 88.512H162.877ZM164.551 93.3354C165.698 94.5214 167.125 95.128 168.773 95.128V93.128C167.669 93.128 166.76 92.7426 165.988 91.9446L164.551 93.3354ZM168.773 95.128C170.422 95.128 171.84 94.5202 172.96 93.3232L171.499 91.9568C170.763 92.7438 169.877 93.128 168.773 93.128V95.128ZM172.959 93.3239C174.131 92.074 174.669 90.4323 174.669 88.512H172.669C172.669 90.0477 172.248 91.158 171.5 91.9561L172.959 93.3239ZM212.678 90.432V91.432H213.556L213.67 90.5613L212.678 90.432ZM194.87 90.432V89.432H193.803L193.872 90.4971L194.87 90.432ZM196.07 93.744L195.348 94.4352L195.363 94.4513L195.379 94.4666L196.07 93.744ZM202.214 92.688V91.688H201.583L201.312 92.2573L202.214 92.688ZM212.246 92.688L213.222 92.9067L213.495 91.688H212.246V92.688ZM209.798 97.68L209.027 97.0431L209.026 97.0449L209.798 97.68ZM205.286 101.088L205.701 101.998L205.286 101.088ZM192.134 100.656L191.654 101.533L191.66 101.536L192.134 100.656ZM187.286 95.856L186.411 96.3405L186.417 96.3507L187.286 95.856ZM187.286 81.216L188.158 81.7063L188.161 81.7005L187.286 81.216ZM192.086 76.416L191.612 75.5355L191.606 75.5386L192.086 76.416ZM206.294 76.368L206.763 75.4849L206.294 76.368ZM211.094 81.072L210.223 81.5623L210.226 81.5681L211.094 81.072ZM203.222 85.872V86.872H204.222V85.872H203.222ZM202.07 83.184L201.412 83.9366L201.421 83.9445L201.43 83.9522L202.07 83.184ZM196.358 83.136L196.995 83.907L197.005 83.8989L197.014 83.8906L196.358 83.136ZM194.918 85.872L193.935 85.6908L193.717 86.872H194.918V85.872ZM211.822 88.224C211.822 88.9164 211.777 89.6092 211.687 90.3027L213.67 90.5613C213.771 89.7828 213.822 89.0036 213.822 88.224H211.822ZM212.678 89.432H194.87V91.432H212.678V89.432ZM193.872 90.4971C193.977 92.1009 194.422 93.4674 195.348 94.4352L196.793 93.0528C196.311 92.5486 195.956 91.7071 195.868 90.3669L193.872 90.4971ZM195.379 94.4666C196.32 95.3671 197.505 95.8 198.854 95.8V93.8C197.964 93.8 197.292 93.5289 196.761 93.0214L195.379 94.4666ZM198.854 95.8C199.791 95.8 200.656 95.5881 201.402 95.1186C202.15 94.649 202.714 93.9625 203.117 93.1187L201.312 92.2573C201.042 92.8215 200.711 93.191 200.338 93.4254C199.965 93.6599 199.485 93.8 198.854 93.8V95.8ZM202.214 93.688H212.246V91.688H202.214V93.688ZM211.27 92.4693C210.889 94.1711 210.143 95.692 209.027 97.0431L210.569 98.3169C211.885 96.724 212.771 94.9169 213.222 92.9067L211.27 92.4693ZM209.026 97.0449C207.946 98.3586 206.567 99.4045 204.871 100.178L205.701 101.998C207.653 101.108 209.283 99.8814 210.571 98.3151L209.026 97.0449ZM204.871 100.178C203.19 100.945 201.318 101.336 199.238 101.336V103.336C201.575 103.336 203.734 102.895 205.701 101.998L204.871 100.178ZM199.238 101.336C196.727 101.336 194.525 100.808 192.608 99.7755L191.66 101.536C193.903 102.744 196.438 103.336 199.238 103.336V101.336ZM192.614 99.7786C190.733 98.75 189.25 97.2844 188.155 95.3613L186.417 96.3507C187.69 98.5876 189.439 100.322 191.654 101.533L192.614 99.7786ZM188.161 95.3715C187.105 93.4649 186.558 91.1898 186.558 88.512H184.558C184.558 91.4662 185.163 94.0871 186.411 96.3405L188.161 95.3715ZM186.558 88.512C186.558 85.8337 187.105 83.5775 188.158 81.7063L186.415 80.7257C185.163 82.9505 184.558 85.5583 184.558 88.512H186.558ZM188.161 81.7005C189.223 79.783 190.688 78.3207 192.566 77.2934L191.606 75.5386C189.389 76.7513 187.653 78.489 186.411 80.7315L188.161 81.7005ZM192.56 77.2965C194.476 76.2652 196.693 75.736 199.238 75.736V73.736C196.408 73.736 193.857 74.3268 191.612 75.5355L192.56 77.2965ZM199.238 75.736C201.755 75.736 203.941 76.2504 205.825 77.2511L206.763 75.4849C204.551 74.3096 202.034 73.736 199.238 73.736V75.736ZM205.825 77.2511C207.702 78.2481 209.163 79.6787 210.223 81.5623L211.966 80.5817C210.721 78.3693 208.983 76.6639 206.763 75.4849L205.825 77.2511ZM210.226 81.5681C211.277 83.4072 211.822 85.6137 211.822 88.224H213.822C213.822 85.3303 213.216 82.7688 211.962 80.5759L210.226 81.5681ZM204.222 85.872C204.222 84.4737 203.743 83.2759 202.71 82.4158L201.43 83.9522C201.934 84.3721 202.222 84.9663 202.222 85.872H204.222ZM202.729 82.4314C201.755 81.5792 200.551 81.176 199.19 81.176V83.176C200.133 83.176 200.85 83.4448 201.412 83.9366L202.729 82.4314ZM199.19 81.176C197.843 81.176 196.652 81.5554 195.702 82.3814L197.014 83.8906C197.536 83.4366 198.233 83.176 199.19 83.176V81.176ZM195.721 82.365C194.756 83.1623 194.189 84.3131 193.935 85.6908L195.902 86.0532C196.096 84.9989 196.488 84.3257 196.995 83.907L195.721 82.365ZM194.918 86.872H203.222V84.872H194.918V86.872ZM226.08 79.824H225.08V83.0437L226.904 80.3905L226.08 79.824ZM234.768 74.832H235.768V73.832H234.768V74.832ZM234.768 84.864V85.864H235.768V84.864H234.768ZM227.568 86.064L228.196 86.8424L227.568 86.064ZM226.08 102V103H227.08V102H226.08ZM216.672 102H215.672V103H216.672V102ZM216.672 75.072V74.072H215.672V75.072H216.672ZM226.08 75.072H227.08V74.072H226.08V75.072ZM226.904 80.3905C227.884 78.9656 229.06 77.8525 230.432 77.0351L229.409 75.3169C227.773 76.2915 226.389 77.6104 225.256 79.2575L226.904 80.3905ZM230.432 77.0351C231.784 76.23 233.223 75.832 234.768 75.832V73.832C232.858 73.832 231.065 74.33 229.409 75.3169L230.432 77.0351ZM233.768 74.832V84.864H235.768V74.832H233.768ZM234.768 83.864H232.128V85.864H234.768V83.864ZM232.128 83.864C229.981 83.864 228.19 84.2779 226.941 85.2856L228.196 86.8424C228.931 86.2501 230.18 85.864 232.128 85.864V83.864ZM226.941 85.2856C225.607 86.3611 225.08 88.1233 225.08 90.24H227.08C227.08 88.3887 227.546 87.3669 228.196 86.8424L226.941 85.2856ZM225.08 90.24V102H227.08V90.24H225.08ZM226.08 101H216.672V103H226.08V101ZM217.672 102V75.072H215.672V102H217.672ZM216.672 76.072H226.08V74.072H216.672V76.072ZM225.08 75.072V79.824H227.08V75.072H225.08Z" fill="#8C8C8C"/>
</svg>
